<svg version="1.1" xmlns="http://www.w3.org/2000/svg" viewBox="0 0 1767.8782476897 957.1737362201177" width="1767.8782476897" height="957.1737362201177">
  <!-- svg-source:excalidraw -->
  
  <defs>
    <style class="style-fonts">
      @font-face {
        font-family: "Virgil";
        src: url("https://excalidraw.com/Virgil.woff2");
      }
      @font-face {
        font-family: "Cascadia";
        src: url("https://excalidraw.com/Cascadia.woff2");
      }
      @font-face {
        font-family: "Assistant";
        src: url("https://excalidraw.com/Assistant-Regular.woff2");
      }
    </style>
    
  </defs>
  <rect x="0" y="0" width="1767.8782476897" height="957.1737362201177" fill="#ffffff"></rect><g transform="translate(717.7952490924654 10) rotate(0 343.5197448730469 200)"><text x="0" y="17.52" font-family="Virgil, Segoe UI Emoji" font-size="20px" fill="#1e1e1e" text-anchor="start" style="white-space: pre;" direction="ltr" dominant-baseline="alphabetic">MobyPay web tool</text><text x="0" y="42.519999999999996" font-family="Virgil, Segoe UI Emoji" font-size="20px" fill="#1e1e1e" text-anchor="start" style="white-space: pre;" direction="ltr" dominant-baseline="alphabetic"></text><text x="0" y="67.52" font-family="Virgil, Segoe UI Emoji" font-size="20px" fill="#1e1e1e" text-anchor="start" style="white-space: pre;" direction="ltr" dominant-baseline="alphabetic">- Connect Wallet </text><text x="0" y="92.52" font-family="Virgil, Segoe UI Emoji" font-size="20px" fill="#1e1e1e" text-anchor="start" style="white-space: pre;" direction="ltr" dominant-baseline="alphabetic">    - Select wallet to connect </text><text x="0" y="117.52" font-family="Virgil, Segoe UI Emoji" font-size="20px" fill="#1e1e1e" text-anchor="start" style="white-space: pre;" direction="ltr" dominant-baseline="alphabetic">    - Select accounts </text><text x="0" y="142.52" font-family="Virgil, Segoe UI Emoji" font-size="20px" fill="#1e1e1e" text-anchor="start" style="white-space: pre;" direction="ltr" dominant-baseline="alphabetic">    - Disconnect wallet</text><text x="0" y="167.52" font-family="Virgil, Segoe UI Emoji" font-size="20px" fill="#1e1e1e" text-anchor="start" style="white-space: pre;" direction="ltr" dominant-baseline="alphabetic">    - Show USDC and USDT balance</text><text x="0" y="192.52" font-family="Virgil, Segoe UI Emoji" font-size="20px" fill="#1e1e1e" text-anchor="start" style="white-space: pre;" direction="ltr" dominant-baseline="alphabetic">- Send component  </text><text x="0" y="217.52" font-family="Virgil, Segoe UI Emoji" font-size="20px" fill="#1e1e1e" text-anchor="start" style="white-space: pre;" direction="ltr" dominant-baseline="alphabetic">    - Recipient input </text><text x="0" y="242.52" font-family="Virgil, Segoe UI Emoji" font-size="20px" fill="#1e1e1e" text-anchor="start" style="white-space: pre;" direction="ltr" dominant-baseline="alphabetic">    - Amount to send input</text><text x="0" y="267.52" font-family="Virgil, Segoe UI Emoji" font-size="20px" fill="#1e1e1e" text-anchor="start" style="white-space: pre;" direction="ltr" dominant-baseline="alphabetic">    - Select USDC or USDT to send</text><text x="0" y="292.52" font-family="Virgil, Segoe UI Emoji" font-size="20px" fill="#1e1e1e" text-anchor="start" style="white-space: pre;" direction="ltr" dominant-baseline="alphabetic">    - Display selected coin's available balance</text><text x="0" y="317.52" font-family="Virgil, Segoe UI Emoji" font-size="20px" fill="#1e1e1e" text-anchor="start" style="white-space: pre;" direction="ltr" dominant-baseline="alphabetic">    - Fetch and auto refresh Estimated Fee (based on block number)</text><text x="0" y="342.52" font-family="Virgil, Segoe UI Emoji" font-size="20px" fill="#1e1e1e" text-anchor="start" style="white-space: pre;" direction="ltr" dominant-baseline="alphabetic">- Info </text><text x="0" y="367.52" font-family="Virgil, Segoe UI Emoji" font-size="20px" fill="#1e1e1e" text-anchor="start" style="white-space: pre;" direction="ltr" dominant-baseline="alphabetic">    - Transaction processing status (Toast)</text><text x="0" y="392.52" font-family="Virgil, Segoe UI Emoji" font-size="20px" fill="#1e1e1e" text-anchor="start" style="white-space: pre;" direction="ltr" dominant-baseline="alphabetic">    - Error messages (Toast) </text></g><g stroke-linecap="round" transform="translate(742.1775189403374 485.14430390181155) rotate(0 336.13818359375 230.7010498046875)"><path d="M32 0 C194.6 -0.9, 356.15 -0.62, 640.28 0 M32 0 C181.05 2.2, 330.98 1.88, 640.28 0 M640.28 0 C661.11 -1.69, 671.19 12.05, 672.28 32 M640.28 0 C660.04 0.22, 672.56 12.37, 672.28 32 M672.28 32 C671.39 179.86, 671.34 327.04, 672.28 429.4 M672.28 32 C673.16 182.44, 673.68 333.64, 672.28 429.4 M672.28 429.4 C671.82 452.41, 663.1 461.36, 640.28 461.4 M672.28 429.4 C674.33 452.77, 663.86 463.67, 640.28 461.4 M640.28 461.4 C428.62 462.99, 215.76 463.35, 32 461.4 M640.28 461.4 C499.07 460.5, 357.75 460.82, 32 461.4 M32 461.4 C12.13 460.89, -1.42 449.16, 0 429.4 M32 461.4 C12.74 460.22, 1.22 449.21, 0 429.4 M0 429.4 C-0.42 328.83, -0.91 229.13, 0 32 M0 429.4 C1.59 308.34, 1.87 186.9, 0 32 M0 32 C-0.2 11.28, 12.53 1.83, 32 0 M0 32 C-1.91 9.76, 8.38 1.81, 32 0" stroke="#1e1e1e" stroke-width="2" fill="none"></path></g><g stroke-linecap="round" transform="translate(828.6908273807284 548.8928565627061) rotate(0 128.65322875976562 168.23805679562236)"><path d="M32 0 C90.59 1.14, 148.02 -1.46, 225.31 0 M32 0 C91.48 -1.24, 149.22 -0.79, 225.31 0 M225.31 0 C248.18 -1.33, 256.44 11.18, 257.31 32 M225.31 0 C247.41 -0.91, 256.9 9.27, 257.31 32 M257.31 32 C259.46 127.99, 257.58 224.31, 257.31 304.48 M257.31 32 C255.11 120.01, 255.12 206.73, 257.31 304.48 M257.31 304.48 C258.97 325.39, 246.21 337.22, 225.31 336.48 M257.31 304.48 C257.16 327.08, 245.07 334.78, 225.31 336.48 M225.31 336.48 C158.08 337.19, 87.7 335.52, 32 336.48 M225.31 336.48 C147.52 337.94, 71.07 337.18, 32 336.48 M32 336.48 C12.17 338.2, -1.37 327.24, 0 304.48 M32 336.48 C10.34 337.68, -0.04 326.61, 0 304.48 M0 304.48 C1.53 231.25, -0.02 155.69, 0 32 M0 304.48 C0.57 246.7, 0.83 190.87, 0 32 M0 32 C0.83 9.32, 9.88 0.17, 32 0 M0 32 C-1.82 10.07, 9.9 1.62, 32 0" stroke="#1e1e1e" stroke-width="2" fill="none"></path></g><g stroke-linecap="round" transform="translate(849.0800657118914 592.8831546097372) rotate(0 106.2655029296875 28.914031982421875)"><path d="M14.46 0 C53.18 -1.57, 90.96 -0.9, 198.07 0 M14.46 0 C78.48 -0.9, 143.13 -1.08, 198.07 0 M198.07 0 C207.44 1.67, 211.54 6.43, 212.53 14.46 M198.07 0 C208.52 1.55, 211.79 5.2, 212.53 14.46 M212.53 14.46 C213 23.78, 212.01 30.23, 212.53 43.37 M212.53 14.46 C212.43 21.63, 212.87 28.16, 212.53 43.37 M212.53 43.37 C213.25 53.88, 207.57 56.84, 198.07 57.83 M212.53 43.37 C210.58 54.17, 206.97 58.96, 198.07 57.83 M198.07 57.83 C143.39 59.22, 87.21 57.98, 14.46 57.83 M198.07 57.83 C127.12 59.48, 57.34 58.84, 14.46 57.83 M14.46 57.83 C4 59.72, -1.84 52.13, 0 43.37 M14.46 57.83 C3.09 59.64, -1.36 53.53, 0 43.37 M0 43.37 C-1.78 34.4, 1.27 24.58, 0 14.46 M0 43.37 C-1.18 35.91, -0.42 28.48, 0 14.46 M0 14.46 C2 4.92, 5.41 -0.35, 14.46 0 M0 14.46 C2.26 4.71, 5.53 1.82, 14.46 0" stroke="#1e1e1e" stroke-width="2" fill="none"></path></g><g transform="translate(853.7187969247871 561.7081303955499) rotate(0 42.369956970214844 12.5)"><text x="0" y="17.52" font-family="Virgil, Segoe UI Emoji" font-size="20px" fill="#1e1e1e" text-anchor="start" style="white-space: pre;" direction="ltr" dominant-baseline="alphabetic">Recipient</text></g><g stroke-linecap="round" transform="translate(848.0253476943133 691.2328250198934) rotate(0 106.2655029296875 28.914031982421875)"><path d="M14.46 0 C62.51 0.36, 114.9 0.71, 198.07 0 M14.46 0 C71.54 1.47, 128.8 0.51, 198.07 0 M198.07 0 C209.28 -0.95, 213.25 5.14, 212.53 14.46 M198.07 0 C206.61 -1.4, 212.02 5.24, 212.53 14.46 M212.53 14.46 C212.39 23.67, 213.2 33.28, 212.53 43.37 M212.53 14.46 C212.68 24.25, 212.09 32.77, 212.53 43.37 M212.53 43.37 C211.39 51.57, 209.12 59.62, 198.07 57.83 M212.53 43.37 C211.4 54.86, 207.5 58.08, 198.07 57.83 M198.07 57.83 C154.51 58.53, 112.14 58.28, 14.46 57.83 M198.07 57.83 C140.28 57.1, 82.59 56.77, 14.46 57.83 M14.46 57.83 C3.61 58.07, -1.79 53.28, 0 43.37 M14.46 57.83 C6.96 57.19, 1.8 51.5, 0 43.37 M0 43.37 C-0.73 31.98, 0.7 19.71, 0 14.46 M0 43.37 C0.31 33.99, -0.71 24.6, 0 14.46 M0 14.46 C-0.43 4.77, 3.34 -1.44, 14.46 0 M0 14.46 C-1.9 3.54, 3.83 1.12, 14.46 0" stroke="#1e1e1e" stroke-width="2" fill="none"></path></g><g transform="translate(854.9130124892351 664.0872561722372) rotate(0 34.429969787597656 12.5)"><text x="0" y="17.52" font-family="Virgil, Segoe UI Emoji" font-size="20px" fill="#1e1e1e" text-anchor="start" style="white-space: pre;" direction="ltr" dominant-baseline="alphabetic">Amount</text></g><g stroke-linecap="round" transform="translate(1000.281878456032 692.5703494339559) rotate(0 29.335296630859375 28.20556640625)"><path d="M14.1 0 C21.79 -1.43, 28.44 -0.28, 44.57 0 M14.1 0 C24.02 -0.24, 34.76 0.56, 44.57 0 M44.57 0 C52.48 -1.52, 58.76 5.8, 58.67 14.1 M44.57 0 C53.42 -0.91, 58.92 3.73, 58.67 14.1 M58.67 14.1 C56.79 20.89, 56.85 29.77, 58.67 42.31 M58.67 14.1 C59.36 23.02, 58.91 31.45, 58.67 42.31 M58.67 42.31 C59.53 49.87, 55.89 56.48, 44.57 56.41 M58.67 42.31 C57.16 53.81, 54.89 55.18, 44.57 56.41 M44.57 56.41 C35.25 57.96, 25.63 54.41, 14.1 56.41 M44.57 56.41 C35.14 57.03, 24.69 56.25, 14.1 56.41 M14.1 56.41 C5.19 56.83, 2 50.98, 0 42.31 M14.1 56.41 C3.23 55.41, 1.3 50.66, 0 42.31 M0 42.31 C-0.73 32.67, 0.77 26.78, 0 14.1 M0 42.31 C0.24 35.58, 1.06 29.18, 0 14.1 M0 14.1 C-1.39 6.25, 3.54 -0.17, 14.1 0 M0 14.1 C1.88 6.89, 3.41 -1.3, 14.1 0" stroke="#1e1e1e" stroke-width="2" fill="none"></path></g><g stroke-linecap="round" transform="translate(1011.8539609755633 701.6893069534872) rotate(0 18.215728759765625 18.215728759765625)"><path d="M9.33 2.81 C9.33 2.81, 9.33 2.81, 9.33 2.81 M9.33 2.81 C9.33 2.81, 9.33 2.81, 9.33 2.81 M2.25 23.16 C9.83 14.78, 17.55 7.11, 21.93 0.51 M2.25 23.16 C9.04 14.64, 16 6.94, 21.93 0.51 M6.32 30.67 C10.98 23.86, 17.5 17.93, 28.62 5.01 M6.32 30.67 C11.03 24.47, 16.14 19.14, 28.62 5.01 M13.67 34.41 C18.56 26.78, 24.65 21.96, 34.01 11.01 M13.67 34.41 C20.64 26.51, 26.7 19.13, 34.01 11.01 M22.33 36.64 C27.16 30.1, 31.86 24.46, 35.45 21.54 M22.33 36.64 C25.88 32.65, 29.98 28.33, 35.45 21.54" stroke="#a5d8ff" stroke-width="1" fill="none"></path><path d="M21.34 0.49 C25.1 0.93, 29.75 3.74, 32.2 6.73 C34.65 9.72, 36.03 14.53, 36.05 18.44 C36.06 22.35, 34.68 27.28, 32.29 30.2 C29.91 33.12, 25.63 35.39, 21.74 35.96 C17.85 36.52, 12.29 35.46, 8.93 33.59 C5.56 31.73, 2.86 28.3, 1.55 24.79 C0.23 21.29, -0.31 16.25, 1.02 12.56 C2.34 8.87, 6.09 4.76, 9.48 2.64 C12.88 0.52, 19.3 0.21, 21.4 -0.16 C23.5 -0.53, 22.14 -0.03, 22.09 0.43 M19.53 0.55 C23.18 0.69, 28.02 2.28, 30.82 5.09 C33.63 7.89, 36.1 13.33, 36.35 17.39 C36.6 21.46, 34.68 26.46, 32.35 29.46 C30.01 32.46, 25.88 34.56, 22.34 35.39 C18.8 36.21, 14.68 35.96, 11.12 34.4 C7.57 32.85, 2.81 29.57, 1.01 26.08 C-0.79 22.58, -0.84 17.17, 0.33 13.44 C1.5 9.71, 4.72 5.95, 8.01 3.7 C11.3 1.45, 18.09 0.38, 20.06 -0.06 C22.03 -0.51, 19.89 0.61, 19.86 1.01" stroke="#1971c2" stroke-width="2" fill="none"></path></g><g transform="translate(867.791644081032 613.1208255081747) rotate(0 85.50981903076172 7.548826964214527)"><text x="0" y="10.580435873043106" font-family="Virgil, Segoe UI Emoji" font-size="12.078123142743271px" fill="#868e96" text-anchor="start" style="white-space: pre;" direction="ltr" dominant-baseline="alphabetic">Polkadot Asset Hub address</text></g><g transform="translate(938.0841016532888 709.3365755687197) rotate(0 24.276382446289062 13.844266879209385)"><text x="0" y="19.404124457899897" font-family="Virgil, Segoe UI Emoji" font-size="22.150827006735042px" fill="#1e1e1e" text-anchor="start" style="white-space: pre;" direction="ltr" dominant-baseline="alphabetic">100.1</text></g><g stroke-linecap="round" transform="translate(846.7408726476637 804.1584115941469) rotate(0 111.00046997488141 30)"><path d="M15 0 C60.13 -1.37, 103.7 0.02, 207 0 M15 0 C76.78 -0.88, 138.73 0, 207 0 M207 0 C217.16 0.7, 222.58 4.94, 222 15 M207 0 C216.44 -1.53, 222.5 3.15, 222 15 M222 15 C221.58 21.07, 222.94 30.57, 222 45 M222 15 C221.87 24.4, 222.19 35.16, 222 45 M222 45 C223.66 54.25, 217.55 60.67, 207 60 M222 45 C221.04 53.08, 216.68 58.15, 207 60 M207 60 C149.37 58.96, 86.86 59.99, 15 60 M207 60 C158.15 59.64, 108.98 59.45, 15 60 M15 60 C5.58 59.2, -0.63 56.24, 0 45 M15 60 C2.97 59.52, 0.86 54.39, 0 45 M0 45 C0.69 35.39, 0.48 29.31, 0 15 M0 45 C-0.48 35.06, -0.7 26.39, 0 15 M0 15 C1.63 4.09, 4.52 0.57, 15 0 M0 15 C-0.89 3.27, 2.91 1.91, 15 0" stroke="#1e1e1e" stroke-width="2" fill="none"></path></g><g transform="translate(940.2133503740099 824.1584115941469) rotate(0 17.527992248535156 10)"><text x="17.527992248535156" y="14.016" font-family="Virgil, Segoe UI Emoji" font-size="16px" fill="#1e1e1e" text-anchor="middle" style="white-space: pre;" direction="ltr" dominant-baseline="alphabetic">Send</text></g><g transform="translate(909.3234809772458 771.7120718227509) rotate(0 75.5983657836914 6.241376499225225)"><text x="0" y="8.747913301314073" font-family="Virgil, Segoe UI Emoji" font-size="9.986202398760357px" fill="#1e1e1e" text-anchor="start" style="white-space: pre;" direction="ltr" dominant-baseline="alphabetic">Estimated Fee: + 0.1518 USDC</text></g><g stroke-linecap="round" transform="translate(10 485.7716366107427) rotate(0 336.13818359375 230.7010498046875)"><path d="M32 0 C195.36 -1.51, 359.8 -0.58, 640.28 0 M32 0 C178.06 0.78, 324.43 1.3, 640.28 0 M640.28 0 C659.93 -1.4, 672.11 9.77, 672.28 32 M640.28 0 C661.18 1.5, 670.88 11.82, 672.28 32 M672.28 32 C671.91 127.24, 671.32 223.51, 672.28 429.4 M672.28 32 C674.03 178.28, 674.49 323.61, 672.28 429.4 M672.28 429.4 C673.65 452.1, 660.34 461.94, 640.28 461.4 M672.28 429.4 C674.57 452.03, 663.47 462.16, 640.28 461.4 M640.28 461.4 C462.28 460.11, 284.98 460.05, 32 461.4 M640.28 461.4 C409.09 462.34, 177.2 461.78, 32 461.4 M32 461.4 C11.52 461.06, 1.13 449.07, 0 429.4 M32 461.4 C8.91 461, -0.96 450.02, 0 429.4 M0 429.4 C1.32 339.47, 0.86 248.11, 0 32 M0 429.4 C-0.3 308.29, -0.85 186.32, 0 32 M0 32 C-0.16 11.73, 11.88 1.34, 32 0 M0 32 C-0.98 9.67, 10.94 -1.09, 32 0" stroke="#1e1e1e" stroke-width="2" fill="none"></path></g><g stroke-linecap="round" transform="translate(478.2166957897323 510.5557729425112) rotate(0 89.07974243164062 22.034210205078125)"><path d="M11.02 0 C58.63 3.33, 102.57 4.02, 167.14 0 C175.57 0.79, 176.47 2.44, 178.16 11.02 C179.38 19.24, 175.64 29.38, 178.16 33.05 C180.44 43.52, 173.15 46.48, 167.14 44.07 C126.63 43.78, 85.66 46.21, 11.02 44.07 C1.95 44.53, 3.05 41.17, 0 33.05 C-3.26 28.1, -1.35 20.89, 0 11.02 C-2.57 0.76, 6.93 -0.69, 11.02 0" stroke="none" stroke-width="0" fill="#a5d8ff"></path><path d="M11.02 0 C63.86 1.97, 114.75 0.01, 167.14 0 M11.02 0 C51.03 1.52, 91.67 -0.05, 167.14 0 M167.14 0 C174.32 -0.89, 177.79 4.97, 178.16 11.02 M167.14 0 C173.09 1.16, 176.79 2.41, 178.16 11.02 M178.16 11.02 C178.84 17.64, 179.67 24.98, 178.16 33.05 M178.16 11.02 C178.75 15.98, 178.8 22.08, 178.16 33.05 M178.16 33.05 C176.89 40.93, 176.48 45.2, 167.14 44.07 M178.16 33.05 C180.02 41.16, 174.29 43.15, 167.14 44.07 M167.14 44.07 C130.3 46.13, 98.04 43.69, 11.02 44.07 M167.14 44.07 C116.78 44.92, 66.39 45.26, 11.02 44.07 M11.02 44.07 C4.8 42.4, -1.53 40.05, 0 33.05 M11.02 44.07 C2.71 43.36, -1.63 39.86, 0 33.05 M0 33.05 C0.43 28.89, -0.03 22.32, 0 11.02 M0 33.05 C-0.63 25.05, -0.17 17.03, 0 11.02 M0 11.02 C1.21 5.01, 2.82 -0.87, 11.02 0 M0 11.02 C0.28 2.58, 3.01 1.84, 11.02 0" stroke="#1e1e1e" stroke-width="2" fill="none"></path></g><g transform="translate(494.3264904064315 520.0899831475894) rotate(0 72.9699478149414 12.5)"><text x="72.9699478149414" y="17.52" font-family="Virgil, Segoe UI Emoji" font-size="20px" fill="#1e1e1e" text-anchor="middle" style="white-space: pre;" direction="ltr" dominant-baseline="alphabetic">Connect Wallet</text></g><g stroke-linecap="round" transform="translate(116.85858078439207 545.7232002239882) rotate(0 128.65322875976562 168.23805679562236)"><path d="M32 0 C96.33 -0.33, 161.39 -0.28, 225.31 0 M32 0 C106.64 0.91, 181.26 2, 225.31 0 M225.31 0 C245.43 1.01, 256.12 9.57, 257.31 32 M225.31 0 C246.17 1.79, 256.53 11.25, 257.31 32 M257.31 32 C257.72 119.7, 259.85 208.97, 257.31 304.48 M257.31 32 C258.27 107.77, 259.54 183.56, 257.31 304.48 M257.31 304.48 C258.93 326.47, 246.47 335.67, 225.31 336.48 M257.31 304.48 C255.62 323.95, 248.08 334.77, 225.31 336.48 M225.31 336.48 C157.26 337.13, 90.01 335.62, 32 336.48 M225.31 336.48 C177.81 335.31, 128.41 335.97, 32 336.48 M32 336.48 C9.83 335.86, -1.42 325.35, 0 304.48 M32 336.48 C9.61 338.08, 2.27 326.48, 0 304.48 M0 304.48 C1.05 203.72, 1.26 100.85, 0 32 M0 304.48 C0.64 215.84, -0.16 125.83, 0 32 M0 32 C0.24 9.72, 10.09 1.6, 32 0 M0 32 C-0.04 8.68, 9.95 0.66, 32 0" stroke="#1e1e1e" stroke-width="2" fill="none"></path></g><g stroke-linecap="round" transform="translate(137.14680423470077 589.6510863179028) rotate(0 106.2655029296875 28.914031982421875)"><path d="M14.46 0 C57.51 -0.07, 103.96 -0.29, 198.07 0 M14.46 0 C56.52 1.47, 98.35 1.32, 198.07 0 M198.07 0 C206.52 -1.1, 212.12 6.37, 212.53 14.46 M198.07 0 C206.93 0.59, 213.06 6.36, 212.53 14.46 M212.53 14.46 C213.78 26.76, 211.89 37.91, 212.53 43.37 M212.53 14.46 C213.34 25.66, 213.16 36.07, 212.53 43.37 M212.53 43.37 C212.36 52.21, 206.24 56.21, 198.07 57.83 M212.53 43.37 C213.97 51.3, 208.96 59.68, 198.07 57.83 M198.07 57.83 C157.15 60.09, 111.7 60.48, 14.46 57.83 M198.07 57.83 C145.4 56.12, 93.84 55.99, 14.46 57.83 M14.46 57.83 C3.4 57.36, -0.91 54.4, 0 43.37 M14.46 57.83 C7.09 58.49, 1.66 53.15, 0 43.37 M0 43.37 C1.56 32.93, 0.33 24.49, 0 14.46 M0 43.37 C-0.6 32.72, -0.05 22.46, 0 14.46 M0 14.46 C-0.57 6.42, 4.79 -1.73, 14.46 0 M0 14.46 C-0.71 5.48, 6.39 -1.04, 14.46 0" stroke="#1e1e1e" stroke-width="2" fill="none"></path></g><g transform="translate(141.88655032845077 558.2523436421216) rotate(0 42.369956970214844 12.5)"><text x="0" y="17.52" font-family="Virgil, Segoe UI Emoji" font-size="20px" fill="#1e1e1e" text-anchor="start" style="white-space: pre;" direction="ltr" dominant-baseline="alphabetic">Recipient</text></g><g stroke-linecap="round" transform="translate(136.09208621712264 688.0007567280591) rotate(0 106.2655029296875 28.914031982421875)"><path d="M14.46 0 C54.77 1.37, 96.99 1.17, 198.07 0 M14.46 0 C80.89 -1.47, 148.3 -0.15, 198.07 0 M198.07 0 C207.04 0.51, 212.99 6.16, 212.53 14.46 M198.07 0 C209.6 -1.48, 212.1 6.47, 212.53 14.46 M212.53 14.46 C213.83 23.69, 213 37.44, 212.53 43.37 M212.53 14.46 C212.68 24.36, 212.03 34.26, 212.53 43.37 M212.53 43.37 C213.78 51.52, 208.8 59.44, 198.07 57.83 M212.53 43.37 C210.98 53.56, 209.97 59.84, 198.07 57.83 M198.07 57.83 C138.47 59.74, 77.9 57.08, 14.46 57.83 M198.07 57.83 C145.5 57.03, 93.88 57.96, 14.46 57.83 M14.46 57.83 C6.8 58.41, 1.44 53.13, 0 43.37 M14.46 57.83 C5.36 59.57, 0.95 55.06, 0 43.37 M0 43.37 C0.99 37.46, 1.26 28.28, 0 14.46 M0 43.37 C-0.32 36.75, -0.05 27.67, 0 14.46 M0 14.46 C-0.62 5.39, 6.18 -0.9, 14.46 0 M0 14.46 C2.01 5.51, 5.32 -1.08, 14.46 0" stroke="#1e1e1e" stroke-width="2" fill="none"></path></g><g transform="translate(142.97975101204452 660.8551878804028) rotate(0 34.429969787597656 12.5)"><text x="0" y="17.52" font-family="Virgil, Segoe UI Emoji" font-size="20px" fill="#1e1e1e" text-anchor="start" style="white-space: pre;" direction="ltr" dominant-baseline="alphabetic">Amount</text></g><g stroke-linecap="round" transform="translate(288.3486169788413 689.3382811421216) rotate(0 29.335296630859375 28.20556640625)"><path d="M14.1 0 C24.28 -1.16, 32.87 -1.13, 44.57 0 M14.1 0 C21.23 0.02, 29.26 0.43, 44.57 0 M44.57 0 C55.61 -1.29, 58.3 6.13, 58.67 14.1 M44.57 0 C55.42 -0.52, 60.25 6.27, 58.67 14.1 M58.67 14.1 C59.87 22.4, 59.41 27.28, 58.67 42.31 M58.67 14.1 C59.09 20.69, 59.01 29.57, 58.67 42.31 M58.67 42.31 C57.32 52.19, 55.93 58.16, 44.57 56.41 M58.67 42.31 C59.19 50.53, 54.95 56.01, 44.57 56.41 M44.57 56.41 C33.36 55.34, 22.23 54.76, 14.1 56.41 M44.57 56.41 C37.12 56.91, 28.42 56.68, 14.1 56.41 M14.1 56.41 C5.18 57.93, 0.82 53.49, 0 42.31 M14.1 56.41 C3.46 57.04, -0.18 52.94, 0 42.31 M0 42.31 C-1.06 32.38, -1.14 21.4, 0 14.1 M0 42.31 C-0.31 31.87, 0.69 20.41, 0 14.1 M0 14.1 C1.75 5.3, 5.14 -0.94, 14.1 0 M0 14.1 C-0.79 5.54, 2.66 -0.93, 14.1 0" stroke="#1e1e1e" stroke-width="2" fill="none"></path></g><g stroke-linecap="round" transform="translate(299.9206994983725 698.4572386616528) rotate(0 18.215728759765625 18.215728759765625)"><path d="M4.7 6.73 C4.7 6.73, 4.7 6.73, 4.7 6.73 M4.7 6.73 C4.7 6.73, 4.7 6.73, 4.7 6.73 M2.21 21.79 C7.87 16.42, 12.41 10.53, 19.92 1.42 M2.21 21.79 C7.86 15.29, 13.44 8.18, 19.92 1.42 M5.62 30.06 C14.47 21.68, 22.24 11.59, 28.58 3.64 M5.62 30.06 C14.02 20.61, 22.52 11.03, 28.58 3.64 M12.31 34.55 C20.98 25.83, 28.2 16.16, 33.31 10.4 M12.31 34.55 C18.83 27.21, 25.3 18.87, 33.31 10.4 M22.29 35.27 C27.74 29.43, 31.73 23.68, 35.41 20.18 M22.29 35.27 C24.87 32.33, 27.74 29.01, 35.41 20.18" stroke="#a5d8ff" stroke-width="1" fill="none"></path><path d="M15.91 0.03 C19.61 -0.71, 24.54 0.66, 27.86 2.8 C31.18 4.93, 34.66 9.18, 35.82 12.84 C36.99 16.51, 36.27 21.18, 34.84 24.8 C33.42 28.41, 30.66 32.6, 27.27 34.54 C23.87 36.47, 18.3 37.29, 14.47 36.41 C10.64 35.53, 6.69 32.27, 4.3 29.24 C1.91 26.21, 0.05 22.02, 0.14 18.24 C0.23 14.46, 2.15 9.58, 4.85 6.55 C7.56 3.52, 14.4 1.15, 16.38 0.07 C18.36 -1.02, 16.8 -0.32, 16.73 0.04 M14.34 0.49 C18 -0.41, 24.37 1.18, 27.88 3 C31.4 4.82, 34.13 7.89, 35.43 11.41 C36.74 14.93, 36.97 20.48, 35.72 24.12 C34.47 27.77, 31.43 31.27, 27.92 33.26 C24.42 35.25, 18.65 36.63, 14.68 36.06 C10.71 35.49, 6.62 32.82, 4.08 29.85 C1.55 26.88, -0.48 22.02, -0.53 18.25 C-0.58 14.47, 1.1 10.14, 3.79 7.19 C6.48 4.23, 13.65 1.61, 15.59 0.53 C17.54 -0.55, 15.5 0.36, 15.46 0.72" stroke="#1971c2" stroke-width="2" fill="none"></path></g><g transform="translate(155.8583826038414 609.8887572163403) rotate(0 85.50981903076172 7.548826964214527)"><text x="0" y="10.580435873043106" font-family="Virgil, Segoe UI Emoji" font-size="12.078123142743271px" fill="#868e96" text-anchor="start" style="white-space: pre;" direction="ltr" dominant-baseline="alphabetic">Polkadot Asset Hub address</text></g><g transform="translate(258.0017694446616 708.3007456818132) rotate(0 7.619598388671875 13.844266879209385)"><text x="0" y="19.404124457899897" font-family="Virgil, Segoe UI Emoji" font-size="22.150827006735042px" fill="#868e96" text-anchor="start" style="white-space: pre;" direction="ltr" dominant-baseline="alphabetic">0</text></g><g stroke-linecap="round" transform="translate(131.22347104633366 799.5871586438873) rotate(0 111.0004699748814 30)"><path d="M15 0 C69.19 1.11, 123.71 2.29, 207 0 M15 0 C60.84 -1.6, 106.11 -0.7, 207 0 M207 0 C215.73 0.54, 223.99 6.13, 222 15 M207 0 C218.87 0.76, 221.81 4.08, 222 15 M222 15 C220.27 22.88, 223.37 27.24, 222 45 M222 15 C222.52 24.21, 222.72 34.27, 222 45 M222 45 C223.13 53.34, 215.47 59.65, 207 60 M222 45 C221.04 54.29, 215.37 59.47, 207 60 M207 60 C158.76 63.34, 109.49 62.37, 15 60 M207 60 C134.33 61.98, 62.66 62.25, 15 60 M15 60 C6.21 61.34, -0.85 54.13, 0 45 M15 60 C5.28 58.91, -0.66 56.84, 0 45 M0 45 C0.83 37.41, -0.64 28.85, 0 15 M0 45 C-0.41 35.46, -0.95 24.79, 0 15 M0 15 C0.88 5.45, 3.8 1.97, 15 0 M0 15 C1.46 6.99, 4.15 1.54, 15 0" stroke="#868e96" stroke-width="2" fill="none"></path></g><g transform="translate(149.887988262426 819.5871586438873) rotate(0 92.33595275878906 10)"><text x="92.33595275878906" y="14.016" font-family="Virgil, Segoe UI Emoji" font-size="16px" fill="#868e96" text-anchor="middle" style="white-space: pre;" direction="ltr" dominant-baseline="alphabetic">Connect Wallet to send</text></g><g stroke-linecap="round" transform="translate(1183.0470158355706 516.7387604267188) rotate(0 24.6680799253877 24.6680799253877)"><path d="M30.6 0.69 C35.51 1.64, 41.43 5.69, 44.58 10 C47.73 14.3, 49.89 21.31, 49.49 26.54 C49.09 31.77, 45.89 37.68, 42.19 41.39 C38.49 45.1, 32.48 48.26, 27.28 48.82 C22.09 49.37, 15.33 47.63, 11.02 44.74 C6.7 41.85, 2.9 36.45, 1.38 31.47 C-0.14 26.49, -0.19 19.7, 1.9 14.86 C3.99 10.03, 9.06 4.75, 13.91 2.44 C18.77 0.14, 27.93 1.18, 31.04 1.03 C34.14 0.88, 32.61 1.15, 32.54 1.55 M21.52 0.68 C26.5 -0.19, 34.09 1.84, 38.46 4.61 C42.84 7.38, 46.36 12.4, 47.77 17.32 C49.17 22.24, 48.94 29.12, 46.9 34.12 C44.86 39.12, 40.01 44.84, 35.52 47.3 C31.03 49.76, 25.07 50.1, 19.96 48.89 C14.85 47.68, 8.16 44.34, 4.85 40.03 C1.54 35.71, -0.08 28.45, 0.1 23.02 C0.28 17.59, 2.46 11.33, 5.93 7.46 C9.4 3.59, 18.38 0.99, 20.92 -0.18 C23.46 -1.36, 20.92 0, 21.15 0.4" stroke="none" stroke-width="0" fill="#b2f2bb"></path><path d="M21.84 -0.32 C26.77 -1.24, 33.96 0.96, 38.3 3.99 C42.64 7.01, 46.31 12.68, 47.87 17.84 C49.43 23, 49.65 30.14, 47.67 34.95 C45.7 39.75, 40.87 44.35, 36.01 46.66 C31.16 48.97, 23.69 50.01, 18.53 48.79 C13.37 47.57, 8.08 43.64, 5.05 39.35 C2.03 35.07, 0.13 28.39, 0.37 23.08 C0.61 17.76, 2.79 11.27, 6.5 7.46 C10.21 3.66, 19.87 1.36, 22.63 0.26 C25.39 -0.83, 22.98 0.42, 23.06 0.88 M19.49 0.77 C24.39 -0.74, 31.42 0.52, 36.02 2.8 C40.63 5.08, 45.02 9.53, 47.11 14.44 C49.19 19.36, 50.19 27.05, 48.55 32.28 C46.91 37.52, 41.67 42.99, 37.25 45.85 C32.83 48.7, 27.15 50.21, 22.02 49.4 C16.88 48.59, 10.04 45, 6.44 41 C2.85 36.99, 0.67 30.56, 0.46 25.37 C0.25 20.18, 2.08 14.07, 5.19 9.87 C8.31 5.67, 16.71 1.53, 19.17 0.15 C21.63 -1.24, 19.83 0.99, 19.96 1.55" stroke="#1e1e1e" stroke-width="2" fill="none"></path></g><g transform="translate(952.4091640034893 671.5870052642105) rotate(0 51.60702628077365 5.4013920225834795)"><text x="0" y="7.570591058852964" font-family="Virgil, Segoe UI Emoji" font-size="8.64222723613352px" fill="#868e96" text-anchor="start" style="white-space: pre;" direction="ltr" dominant-baseline="alphabetic">Available: 400.24 USDC</text></g><g stroke-linecap="round" transform="translate(1162.5990128565152 499.23003391643385) rotate(0 117.25930095518402 57.68995495204791)"><path d="M28.84 0 C80.44 -0.54, 131.76 -0.66, 205.67 0 M28.84 0 C69.2 -0.58, 109.25 -1.86, 205.67 0 M205.67 0 C223.72 1.38, 233.56 11.18, 234.52 28.84 M205.67 0 C226.86 -1.87, 234.99 9.23, 234.52 28.84 M234.52 28.84 C233.14 50.25, 232.28 68.11, 234.52 86.53 M234.52 28.84 C233.5 48.65, 233.93 66.49, 234.52 86.53 M234.52 86.53 C234.59 105.1, 224.83 115.59, 205.67 115.38 M234.52 86.53 C236.08 104.2, 223.52 114.5, 205.67 115.38 M205.67 115.38 C146.28 114.35, 90.08 113.01, 28.84 115.38 M205.67 115.38 C138.84 115.66, 72.6 115.9, 28.84 115.38 M28.84 115.38 C9 116.15, -0.32 104.06, 0 86.53 M28.84 115.38 C10.53 117, -1.61 106.72, 0 86.53 M0 86.53 C0.73 67.46, 1.18 49.92, 0 28.84 M0 86.53 C0.03 73.51, -0.64 60.46, 0 28.84 M0 28.84 C-1.5 11.39, 9.19 1.47, 28.84 0 M0 28.84 C-0.36 10.73, 10.51 -1.72, 28.84 0" stroke="#1e1e1e" stroke-width="2" fill="none"></path></g><g transform="translate(1227.037797879601 578.2353764821237) rotate(0 53.231712341308594 8.943741341339887)"><text x="0" y="12.535547864021947" font-family="Virgil, Segoe UI Emoji" font-size="14.309986146143775px" fill="#1e1e1e" text-anchor="start" style="white-space: pre;" direction="ltr" dominant-baseline="alphabetic">123Wg....88g5G</text></g><g transform="translate(1255.906650407987 529.1344951886342) rotate(0 45.729584392354354 8.300737636651604)"><text x="0" y="11.63431387153089" font-family="Virgil, Segoe UI Emoji" font-size="13.28118021864257px" fill="#868e96" text-anchor="start" style="white-space: pre;" direction="ltr" dominant-baseline="alphabetic">400.24 USDC</text></g><g transform="translate(1257.616484399585 552.3757312252793) rotate(0 41.26816292218473 8.300737636651604)"><text x="0" y="11.634313871530889" font-family="Virgil, Segoe UI Emoji" font-size="13.281180218642568px" fill="#868e96" text-anchor="start" style="white-space: pre;" direction="ltr" dominant-baseline="alphabetic">100.15 USDT</text></g><g stroke-linecap="round" transform="translate(1489.1285072094931 491.38519084560676) rotate(0 134.3748702401034 201.31575620783792)"><path d="M32 0 C110.82 0.89, 187.98 -0.53, 236.75 0 M32 0 C88.14 0.96, 144.87 0.95, 236.75 0 M236.75 0 C258.88 -0.57, 268.87 9.84, 268.75 32 M236.75 0 C256.29 0.42, 269.41 9.78, 268.75 32 M268.75 32 C269.46 152.12, 269.32 274.46, 268.75 370.63 M268.75 32 C268.38 102.64, 267.52 173.37, 268.75 370.63 M268.75 370.63 C269.25 392.3, 256.66 401.5, 236.75 402.63 M268.75 370.63 C269.91 390.52, 255.85 400.69, 236.75 402.63 M236.75 402.63 C177.97 404.25, 120.33 404.59, 32 402.63 M236.75 402.63 C185.72 402.96, 133.65 401.86, 32 402.63 M32 402.63 C8.95 404, -1.19 390.78, 0 370.63 M32 402.63 C10.73 402.29, -1.93 394.13, 0 370.63 M0 370.63 C-0.73 277.11, 0.71 184.64, 0 32 M0 370.63 C-2.16 281.14, -1.03 191.19, 0 32 M0 32 C-1.99 10.83, 10.54 0.56, 32 0 M0 32 C0.74 10.47, 9.91 0.8, 32 0" stroke="#1e1e1e" stroke-width="2" fill="none"></path></g><g stroke-linecap="round"><g transform="translate(1502.7627689663693 613.1561993109848) rotate(0 117.09896019869927 -0.3194520814776638)"><path d="M-1.13 -0.92 C38.23 -0.77, 195.82 0.56, 235.1 0.47 M0.48 1.21 C39.85 1.09, 195.72 -0.78, 234.62 -1.08" stroke="#868e96" stroke-width="2" fill="none"></path></g></g><mask></mask><g stroke-linecap="round"><g transform="translate(1498.5835815660716 731.0914570261843) rotate(0 119.64910066881896 -1.1866438501843959)"><path d="M0.43 0.35 C40.43 0.16, 200.05 -1.36, 239.74 -1.82 M-0.81 -0.52 C39.1 -1, 198.71 -3.55, 239.02 -3.65" stroke="#868e96" stroke-width="2" fill="none"></path></g></g><mask></mask><g stroke-linecap="round"><g transform="translate(1500.4401145652937 849.2811730846688) rotate(0 123.8208731561653 0)"><path d="M0.63 0.01 C41.92 0.04, 206.1 -0.56, 247.12 -0.52 M-0.49 -1.04 C40.64 -0.78, 204.29 0.29, 245.9 0.75" stroke="#1e1e1e" stroke-width="2" fill="none"></path></g></g><mask></mask><g transform="translate(1590.5804354187267 858.2799786184308) rotate(0 41.16798400878906 10)"><text x="0" y="14.016" font-family="Virgil, Segoe UI Emoji" font-size="16px" fill="#1e1e1e" text-anchor="start" style="white-space: pre;" direction="ltr" dominant-baseline="alphabetic">Disconnect</text></g><g stroke-linecap="round"><g transform="translate(1748.2105764115286 523.0894812653524) rotate(0 0 156.70740864821346)"><path d="M-0.51 -1.08 C-0.47 51.23, -0.93 261.49, -0.67 314.03 M1.42 0.96 C1.93 52.91, 1.79 260.35, 1.69 312.23" stroke="#868e96" stroke-width="2" fill="none"></path></g></g><mask></mask><g transform="translate(1255.3272485654777 510.76262577757234) rotate(0 26.495208740234375 7.560380533985494)"><text x="0" y="10.596629356434105" font-family="Virgil, Segoe UI Emoji" font-size="12.096608854376832px" fill="#1e1e1e" text-anchor="start" style="white-space: pre;" direction="ltr" dominant-baseline="alphabetic">Balances</text></g><g stroke-linecap="round" transform="translate(1531.7341321707495 514.3400639921816) rotate(0 24.6680799253877 24.6680799253877)"><path d="M29.74 0.83 C34.77 1.63, 41.32 5.28, 44.63 9.48 C47.94 13.68, 49.93 20.73, 49.62 26.02 C49.3 31.31, 46.41 37.39, 42.76 41.2 C39.11 45.01, 32.94 48.11, 27.73 48.88 C22.52 49.65, 15.94 48.66, 11.5 45.82 C7.07 42.99, 2.67 36.92, 1.14 31.84 C-0.39 26.77, 0.31 20.18, 2.3 15.37 C4.29 10.55, 8.25 5.31, 13.09 2.95 C17.93 0.59, 28.23 1.5, 31.34 1.21 C34.44 0.92, 31.85 0.8, 31.7 1.2 M23.11 -0.62 C28 -1.37, 35.12 1.01, 39.42 4.17 C43.72 7.34, 47.57 13.17, 48.9 18.38 C50.24 23.58, 49.77 30.69, 47.44 35.41 C45.11 40.12, 39.76 44.5, 34.9 46.67 C30.04 48.85, 23.49 49.81, 18.3 48.44 C13.12 47.08, 6.91 42.81, 3.78 38.48 C0.64 34.15, -1.1 27.64, -0.53 22.46 C0.03 17.28, 3.15 11.2, 7.18 7.41 C11.21 3.62, 20.9 0.83, 23.62 -0.27 C26.33 -1.36, 23.52 0.26, 23.46 0.83" stroke="none" stroke-width="0" fill="#b2f2bb"></path><path d="M30.63 0.75 C35.48 1.74, 41.35 6.03, 44.41 10.27 C47.47 14.52, 49.28 20.92, 48.98 26.22 C48.68 31.53, 46.19 38.26, 42.63 42.09 C39.07 45.92, 32.92 48.8, 27.61 49.22 C22.3 49.64, 15.15 47.66, 10.76 44.62 C6.36 41.58, 2.68 35.88, 1.23 30.96 C-0.22 26.03, -0.08 19.84, 2.04 15.09 C4.17 10.34, 9 4.79, 13.99 2.46 C18.98 0.13, 28.87 1.25, 31.97 1.12 C35.06 0.99, 32.68 1.37, 32.54 1.7 M22.02 0.65 C27.13 -0.24, 34.37 1.56, 38.86 4.53 C43.35 7.49, 47.45 13.39, 48.94 18.46 C50.43 23.52, 49.98 30.28, 47.81 34.92 C45.63 39.55, 40.72 43.98, 35.88 46.26 C31.03 48.54, 23.85 49.89, 18.74 48.59 C13.62 47.3, 8.36 42.83, 5.18 38.5 C2 34.17, -0.71 27.68, -0.36 22.6 C-0.02 17.53, 3.35 11.71, 7.23 8.06 C11.11 4.41, 20.49 1.86, 22.92 0.68 C25.34 -0.49, 21.76 0.64, 21.79 1" stroke="#1e1e1e" stroke-width="2" fill="none"></path></g><g transform="translate(1575.7249142147796 575.8366800475866) rotate(0 53.231712341308594 8.94374134133983)"><text x="0" y="12.535547864021947" font-family="Virgil, Segoe UI Emoji" font-size="14.309986146143775px" fill="#1e1e1e" text-anchor="start" style="white-space: pre;" direction="ltr" dominant-baseline="alphabetic">123Wg....88g5G</text></g><g transform="translate(1604.5937667431654 526.7357987540969) rotate(0 45.729584392354354 8.300737636651604)"><text x="0" y="11.63431387153089" font-family="Virgil, Segoe UI Emoji" font-size="13.28118021864257px" fill="#868e96" text-anchor="start" style="white-space: pre;" direction="ltr" dominant-baseline="alphabetic">400.24 USDC</text></g><g transform="translate(1606.3036007347637 549.9770347907421) rotate(0 41.26816292218473 8.300737636651604)"><text x="0" y="11.634313871530889" font-family="Virgil, Segoe UI Emoji" font-size="13.281180218642568px" fill="#868e96" text-anchor="start" style="white-space: pre;" direction="ltr" dominant-baseline="alphabetic">100.15 USDT</text></g><g transform="translate(1604.0143649006563 508.36392934303524) rotate(0 26.495208740234375 7.560380533985494)"><text x="0" y="10.596629356434105" font-family="Virgil, Segoe UI Emoji" font-size="12.096608854376832px" fill="#1e1e1e" text-anchor="start" style="white-space: pre;" direction="ltr" dominant-baseline="alphabetic">Balances</text></g><g stroke-linecap="round" transform="translate(1532.697758245278 632.881629705141) rotate(0 24.6680799253877 24.6680799253877)"><path d="M23.12 -0.16 C28.03 -0.9, 34.84 1.49, 39.01 4.69 C43.18 7.88, 46.79 13.97, 48.11 19.02 C49.43 24.08, 49.22 30.35, 46.94 35.02 C44.65 39.7, 39.24 44.82, 34.38 47.07 C29.51 49.32, 22.72 49.96, 17.75 48.5 C12.77 47.04, 7.47 42.64, 4.53 38.31 C1.59 33.97, -0.33 27.7, 0.11 22.47 C0.55 17.24, 3.18 10.67, 7.17 6.93 C11.16 3.19, 21.08 1.12, 24.05 0.03 C27.01 -1.06, 24.93 -0.04, 24.96 0.38 M27.24 -0.01 C32.44 0.08, 38.6 3.89, 42.36 7.65 C46.12 11.42, 49.44 17.34, 49.8 22.55 C50.16 27.77, 47.65 34.57, 44.51 38.95 C41.37 43.34, 35.91 47.4, 30.96 48.88 C26.01 50.35, 19.46 49.96, 14.81 47.78 C10.15 45.6, 5.43 40.76, 3.02 35.81 C0.62 30.86, -0.78 23.34, 0.37 18.07 C1.52 12.79, 5.51 7.07, 9.91 4.16 C14.31 1.25, 24 1.25, 26.79 0.61 C29.58 -0.03, 26.72 -0.04, 26.66 0.33" stroke="none" stroke-width="0" fill="#b2f2bb"></path><path d="M28.71 0.3 C33.69 0.76, 40.52 4.48, 43.94 8.49 C47.36 12.5, 49.25 19.04, 49.22 24.36 C49.18 29.68, 47.13 36.3, 43.74 40.44 C40.35 44.57, 34.12 48.34, 28.89 49.19 C23.65 50.05, 16.94 48.28, 12.33 45.57 C7.72 42.86, 3.12 37.78, 1.24 32.94 C-0.63 28.09, -0.82 21.4, 1.07 16.51 C2.96 11.62, 7.7 6.3, 12.59 3.6 C17.47 0.89, 27.38 0.71, 30.39 0.27 C33.4 -0.17, 30.7 0.5, 30.64 0.95 M28.79 -0.07 C33.78 0.41, 40.74 4.41, 44.18 8.48 C47.62 12.55, 49.54 18.94, 49.42 24.37 C49.3 29.8, 47.05 36.83, 43.46 41.06 C39.87 45.29, 33.18 48.85, 27.86 49.77 C22.55 50.69, 15.91 49.32, 11.58 46.55 C7.25 43.79, 3.41 38.36, 1.87 33.21 C0.33 28.06, 0.61 20.66, 2.33 15.66 C4.06 10.67, 7.67 5.67, 12.21 3.24 C16.75 0.81, 26.8 1.41, 29.57 1.07 C32.34 0.73, 28.95 0.9, 28.84 1.2" stroke="#1e1e1e" stroke-width="2" fill="none"></path></g><g transform="translate(1576.6885402893083 694.378245760546) rotate(0 53.231712341308594 8.943741341339887)"><text x="0" y="12.535547864021947" font-family="Virgil, Segoe UI Emoji" font-size="14.309986146143775px" fill="#1e1e1e" text-anchor="start" style="white-space: pre;" direction="ltr" dominant-baseline="alphabetic">123Wg....88g5G</text></g><g transform="translate(1605.5573928176943 645.2773644670563) rotate(0 45.729584392354354 8.300737636651604)"><text x="0" y="11.63431387153089" font-family="Virgil, Segoe UI Emoji" font-size="13.28118021864257px" fill="#868e96" text-anchor="start" style="white-space: pre;" direction="ltr" dominant-baseline="alphabetic">400.24 USDC</text></g><g transform="translate(1607.2672268092922 668.5186005037015) rotate(0 41.26816292218473 8.300737636651604)"><text x="0" y="11.634313871530889" font-family="Virgil, Segoe UI Emoji" font-size="13.281180218642568px" fill="#868e96" text-anchor="start" style="white-space: pre;" direction="ltr" dominant-baseline="alphabetic">100.15 USDT</text></g><g transform="translate(1604.9779909751849 626.9054950559946) rotate(0 26.495208740234375 7.560380533985494)"><text x="0" y="10.596629356434105" font-family="Virgil, Segoe UI Emoji" font-size="12.096608854376832px" fill="#1e1e1e" text-anchor="start" style="white-space: pre;" direction="ltr" dominant-baseline="alphabetic">Balances</text></g><g stroke-linecap="round" transform="translate(1534.8885735974566 749.2029478855944) rotate(0 24.6680799253877 24.6680799253877)"><path d="M22.15 -0.21 C27.26 -1.07, 34.81 0.89, 39.16 3.94 C43.51 6.99, 46.88 12.96, 48.27 18.08 C49.65 23.2, 49.6 29.87, 47.45 34.66 C45.31 39.45, 40.27 44.53, 35.41 46.81 C30.56 49.1, 23.5 49.68, 18.33 48.38 C13.16 47.08, 7.42 43.26, 4.4 39.01 C1.38 34.75, -0.2 28.2, 0.2 22.84 C0.6 17.48, 2.88 10.73, 6.8 6.87 C10.72 3.01, 20.74 0.67, 23.71 -0.32 C26.68 -1.3, 24.69 0.51, 24.61 0.97 M23.59 -0.08 C28.52 -0.5, 35.88 1.55, 40.12 4.89 C44.36 8.23, 48.11 14.61, 49.04 19.94 C49.97 25.27, 48.16 32.26, 45.7 36.89 C43.25 41.51, 39.02 45.8, 34.31 47.7 C29.6 49.59, 22.68 49.88, 17.45 48.28 C12.21 46.67, 5.71 42.74, 2.92 38.07 C0.13 33.39, -0.24 25.66, 0.71 20.25 C1.66 14.84, 4.7 8.98, 8.63 5.61 C12.55 2.24, 21.73 0.8, 24.27 0.03 C26.8 -0.74, 23.82 0.65, 23.86 0.99" stroke="none" stroke-width="0" fill="#b2f2bb"></path><path d="M21.9 -0.13 C26.82 -0.89, 33.6 1.51, 37.97 4.43 C42.34 7.35, 46.55 12.3, 48.11 17.38 C49.67 22.46, 49.4 30.07, 47.34 34.91 C45.28 39.75, 40.59 44.13, 35.75 46.41 C30.91 48.69, 23.53 49.74, 18.32 48.58 C13.12 47.42, 7.63 43.68, 4.51 39.46 C1.39 35.24, -0.78 28.56, -0.39 23.28 C-0.01 17.99, 2.86 11.65, 6.82 7.77 C10.78 3.88, 20.41 1.26, 23.35 -0.03 C26.29 -1.32, 24.42 -0.33, 24.46 0.03 M28 0.68 C33.16 1.21, 40.02 4.74, 43.64 8.54 C47.27 12.34, 49.67 18.19, 49.75 23.48 C49.83 28.77, 47.43 35.96, 44.14 40.29 C40.86 44.61, 35.32 48.36, 30.03 49.42 C24.74 50.49, 17.16 49.29, 12.4 46.66 C7.63 44.03, 3.42 38.51, 1.47 33.63 C-0.49 28.76, -1.14 22.46, 0.66 17.4 C2.46 12.34, 7.54 6.13, 12.27 3.29 C16.99 0.46, 26.37 0.84, 29.01 0.37 C31.65 -0.09, 28.18 0.2, 28.11 0.51" stroke="#1e1e1e" stroke-width="2" fill="none"></path></g><g transform="translate(1578.8793556414869 810.6995639409994) rotate(0 53.231712341308594 8.94374134133983)"><text x="0" y="12.535547864021947" font-family="Virgil, Segoe UI Emoji" font-size="14.309986146143775px" fill="#1e1e1e" text-anchor="start" style="white-space: pre;" direction="ltr" dominant-baseline="alphabetic">123Wg....88g5G</text></g><g transform="translate(1607.748208169873 761.5986826475099) rotate(0 45.729584392354354 8.300737636651604)"><text x="0" y="11.63431387153089" font-family="Virgil, Segoe UI Emoji" font-size="13.28118021864257px" fill="#868e96" text-anchor="start" style="white-space: pre;" direction="ltr" dominant-baseline="alphabetic">400.24 USDC</text></g><g transform="translate(1609.4580421614708 784.8399186841549) rotate(0 41.26816292218473 8.300737636651604)"><text x="0" y="11.634313871530889" font-family="Virgil, Segoe UI Emoji" font-size="13.281180218642568px" fill="#868e96" text-anchor="start" style="white-space: pre;" direction="ltr" dominant-baseline="alphabetic">100.15 USDT</text></g><g transform="translate(1607.1688063273634 743.226813236448) rotate(0 26.495208740234375 7.560380533985494)"><text x="0" y="10.596629356434105" font-family="Virgil, Segoe UI Emoji" font-size="12.096608854376832px" fill="#1e1e1e" text-anchor="start" style="white-space: pre;" direction="ltr" dominant-baseline="alphabetic">Balances</text></g></svg>