<svg version="1.1" xmlns="http://www.w3.org/2000/svg" viewBox="0 0 1767.8782476897 482.02943231830614" width="1767.8782476897" height="482.02943231830614">
  <!-- svg-source:excalidraw -->
  
  <defs>
    <style class="style-fonts">
      @font-face {
        font-family: "Virgil";
        src: url("https://excalidraw.com/Virgil.woff2");
      }
      @font-face {
        font-family: "Cascadia";
        src: url("https://excalidraw.com/Cascadia.woff2");
      }
      @font-face {
        font-family: "Assistant";
        src: url("https://excalidraw.com/Assistant-Regular.woff2");
      }
    </style>
    
  </defs>
  <rect x="0" y="0" width="1767.8782476897" height="482.02943231830614" fill="#ffffff"></rect><g stroke-linecap="round" transform="translate(742.1775189403374 10) rotate(0 336.13818359375 230.7010498046875)"><path d="M32 0 C194.6 -0.9, 356.15 -0.62, 640.28 0 M32 0 C181.05 2.2, 330.98 1.88, 640.28 0 M640.28 0 C661.11 -1.69, 671.19 12.05, 672.28 32 M640.28 0 C660.04 0.22, 672.56 12.37, 672.28 32 M672.28 32 C671.39 179.86, 671.34 327.04, 672.28 429.4 M672.28 32 C673.16 182.44, 673.68 333.64, 672.28 429.4 M672.28 429.4 C671.82 452.41, 663.1 461.36, 640.28 461.4 M672.28 429.4 C674.33 452.77, 663.86 463.67, 640.28 461.4 M640.28 461.4 C428.62 462.99, 215.76 463.35, 32 461.4 M640.28 461.4 C499.07 460.5, 357.75 460.82, 32 461.4 M32 461.4 C12.13 460.89, -1.42 449.16, 0 429.4 M32 461.4 C12.74 460.22, 1.22 449.21, 0 429.4 M0 429.4 C-0.42 328.83, -0.91 229.13, 0 32 M0 429.4 C1.59 308.34, 1.87 186.9, 0 32 M0 32 C-0.2 11.28, 12.53 1.83, 32 0 M0 32 C-1.91 9.76, 8.38 1.81, 32 0" stroke="#1e1e1e" stroke-width="2" fill="none"></path></g><g stroke-linecap="round" transform="translate(999.5662671760632 183.6834495141719) rotate(0 85.18527234143045 111.3956083689838)"><path d="M32 0 C64.45 1.09, 95.75 -1.51, 138.37 0 M32 0 C64.98 -0.55, 96.23 -0.1, 138.37 0 M138.37 0 C161.24 -1.33, 169.51 11.18, 170.37 32 M138.37 0 C160.48 -0.91, 169.96 9.27, 170.37 32 M170.37 32 C172.56 88.22, 170.14 144.88, 170.37 190.79 M170.37 32 C168.34 83.59, 168.35 133.52, 170.37 190.79 M170.37 190.79 C172.04 211.71, 159.28 223.54, 138.37 222.79 M170.37 190.79 C170.22 213.39, 158.13 221.09, 138.37 222.79 M138.37 222.79 C101.93 223.22, 62.35 221.55, 32 222.79 M138.37 222.79 C95.15 223.54, 53.25 222.78, 32 222.79 M32 222.79 C12.17 224.51, -1.37 213.56, 0 190.79 M32 222.79 C10.34 223.99, -0.04 212.93, 0 190.79 M0 190.79 C1.34 148.5, -0.65 103.21, 0 32 M0 190.79 C0.25 156.69, 0.58 125.08, 0 32 M0 32 C0.83 9.32, 9.88 0.17, 32 0 M0 32 C-1.82 10.07, 9.9 1.62, 32 0" stroke="#1e1e1e" stroke-width="2" fill="none"></path></g><g stroke-linecap="round" transform="translate(1013.0666109825736 212.81078316636058) rotate(0 70.36166829880187 19.144872714471035)"><path d="M9.57 0 C35.25 -1.45, 59.98 -0.78, 131.15 0 M9.57 0 C51.97 -0.81, 94.99 -1, 131.15 0 M131.15 0 C137.26 1.67, 139.73 4.8, 140.72 9.57 M131.15 0 C138.34 1.55, 139.98 3.57, 140.72 9.57 M140.72 9.57 C141.25 16.13, 140.3 19.94, 140.72 28.72 M140.72 9.57 C140.56 14.27, 140.98 18.36, 140.72 28.72 M140.72 28.72 C141.44 35.97, 137.39 37.3, 131.15 38.29 M140.72 28.72 C138.77 36.26, 136.79 39.42, 131.15 38.29 M131.15 38.29 C95.16 39.64, 57.67 38.41, 9.57 38.29 M131.15 38.29 C84.08 39.53, 38.19 38.89, 9.57 38.29 M9.57 38.29 C2.37 40.18, -1.84 34.22, 0 28.72 M9.57 38.29 C1.46 40.1, -1.36 35.62, 0 28.72 M0 28.72 C-1.71 23.18, 1.2 16.83, 0 9.57 M0 28.72 C-1.05 23.68, -0.32 18.67, 0 9.57 M0 9.57 C2 3.29, 3.79 -0.35, 9.57 0 M0 9.57 C2.26 3.08, 3.9 1.82, 9.57 0" stroke="#1e1e1e" stroke-width="2" fill="none"></path></g><g transform="translate(1016.1380580461141 192.1688377325995) rotate(0 28.037017822265625 8.276635685966426)"><text x="0" y="11.600532577450567" font-family="Virgil, Segoe UI Emoji" font-size="13.24261709754631px" fill="#1e1e1e" text-anchor="start" style="white-space: pre;" direction="ltr" dominant-baseline="alphabetic">Recipient</text></g><g stroke-linecap="round" transform="translate(1012.36824963994 277.93113451193926) rotate(0 70.36166829880187 19.144872714471035)"><path d="M9.57 0 C40.94 -0.05, 76.65 0.3, 131.15 0 M9.57 0 C47.39 0.99, 85.39 0.03, 131.15 0 M131.15 0 C139.1 -0.95, 141.44 3.51, 140.72 9.57 M131.15 0 C136.43 -1.4, 140.21 3.61, 140.72 9.57 M140.72 9.57 C140.58 15.66, 141.36 22.12, 140.72 28.72 M140.72 9.57 C140.84 16.25, 140.28 21.72, 140.72 28.72 M140.72 28.72 C139.58 33.66, 138.95 40.08, 131.15 38.29 M140.72 28.72 C139.59 36.95, 137.32 38.54, 131.15 38.29 M131.15 38.29 C102.43 39.35, 74.92 39.11, 9.57 38.29 M131.15 38.29 C92.8 37.95, 54.55 37.63, 9.57 38.29 M9.57 38.29 C1.98 38.53, -1.79 35.37, 0 28.72 M9.57 38.29 C5.33 37.65, 1.8 33.59, 0 28.72 M0 28.72 C-0.68 21.1, 0.69 12.64, 0 9.57 M0 28.72 C0.3 22.36, -0.69 16, 0 9.57 M0 9.57 C-0.43 3.14, 1.71 -1.44, 9.57 0 M0 9.57 C-1.9 1.91, 2.2 1.12, 9.57 0" stroke="#1e1e1e" stroke-width="2" fill="none"></path></g><g transform="translate(1016.9287850187101 259.9572158047098) rotate(0 22.782974243164062 8.276635685966426)"><text x="0" y="11.600532577450569" font-family="Virgil, Segoe UI Emoji" font-size="13.242617097546308px" fill="#1e1e1e" text-anchor="start" style="white-space: pre;" direction="ltr" dominant-baseline="alphabetic">Amount</text></g><g stroke-linecap="round" transform="translate(1113.1819965138511 278.816750695642) rotate(0 19.42380503627055 18.67577579686923)"><path d="M9.34 0 C14.91 -1.4, 19.45 -0.25, 29.51 0 M9.34 0 C15.84 -0.3, 23.16 0.5, 29.51 0 M29.51 0 C34.25 -1.52, 38.93 4.21, 38.85 9.34 M29.51 0 C35.18 -0.91, 39.09 2.14, 38.85 9.34 M38.85 9.34 C37.14 13.34, 37.19 19.29, 38.85 28.01 M38.85 9.34 C39.56 15.42, 39.14 21.05, 38.85 28.01 M38.85 28.01 C39.71 32.4, 37.66 37.42, 29.51 37.35 M38.85 28.01 C37.33 36.34, 36.66 36.13, 29.51 37.35 M29.51 37.35 C23.36 38.91, 16.91 35.35, 9.34 37.35 M29.51 37.35 C23.32 38, 16.1 37.23, 9.34 37.35 M9.34 37.35 C3.6 37.77, 2 33.5, 0 28.01 M9.34 37.35 C1.64 36.35, 1.3 33.19, 0 28.01 M0 28.01 C-0.74 21.16, 0.66 17.82, 0 9.34 M0 28.01 C0.16 23.63, 0.92 19.55, 0 9.34 M0 9.34 C-1.39 4.66, 1.95 -0.17, 9.34 0 M0 9.34 C1.88 5.31, 1.82 -1.3, 9.34 0" stroke="#1e1e1e" stroke-width="2" fill="none"></path></g><g stroke-linecap="round" transform="translate(1120.8442294052193 284.8546938336391) rotate(0 12.061196055916923 12.061196055916923)"><path d="M6.53 1.7 C6.53 1.7, 6.53 1.7, 6.53 1.7 M6.53 1.7 C6.53 1.7, 6.53 1.7, 6.53 1.7 M2.72 18.27 C8.38 12.1, 14.19 6.63, 17.16 1.66 M2.72 18.27 C7.64 11.93, 12.69 6.43, 17.16 1.66 M9.42 22.76 C11.88 18.53, 16.17 15.17, 22.54 7.67 M9.42 22.76 C12.03 18.96, 15.11 15.99, 22.54 7.67" stroke="#a5d8ff" stroke-width="1" fill="none"></path><path d="M14.17 0.4 C16.68 0.72, 19.77 2.58, 21.36 4.57 C22.96 6.56, 23.73 9.74, 23.74 12.34 C23.74 14.93, 22.94 18.22, 21.39 20.13 C19.85 22.03, 17.07 23.42, 14.47 23.75 C11.87 24.08, 8.03 23.3, 5.81 22.09 C3.59 20.88, 2.02 18.76, 1.16 16.49 C0.3 14.22, -0.22 10.91, 0.66 8.46 C1.54 6.01, 4.21 3.25, 6.45 1.79 C8.69 0.34, 12.73 0, 14.11 -0.27 C15.48 -0.54, 14.74 -0.18, 14.7 0.18 M12.8 0.52 C15.19 0.62, 18.41 1.38, 20.29 3.25 C22.16 5.12, 23.91 8.98, 24.06 11.73 C24.21 14.48, 22.75 17.81, 21.18 19.74 C19.61 21.66, 16.9 22.79, 14.64 23.28 C12.37 23.77, 9.97 23.68, 7.61 22.69 C5.24 21.71, 1.7 19.66, 0.45 17.36 C-0.8 15.07, -0.71 11.38, 0.11 8.92 C0.92 6.46, 3.14 4.11, 5.35 2.61 C7.55 1.11, 12.03 0.2, 13.32 -0.09 C14.62 -0.38, 13.16 0.56, 13.13 0.86" stroke="#1971c2" stroke-width="2" fill="none"></path></g><g transform="translate(1025.4561243642365 226.21076949906865) rotate(0 56.565460205078125 4.998311251136329)"><text x="0" y="7.0056330495926495" font-family="Virgil, Segoe UI Emoji" font-size="7.997298001818091px" fill="#868e96" text-anchor="start" style="white-space: pre;" direction="ltr" dominant-baseline="alphabetic">Polkadot Asset Hub address</text></g><g transform="translate(1071.9989293879821 289.9181863393194) rotate(0 16.063316345214844 9.16671626388063)"><text x="0" y="12.848069515455087" font-family="Virgil, Segoe UI Emoji" font-size="14.666746022209002px" fill="#1e1e1e" text-anchor="start" style="white-space: pre;" direction="ltr" dominant-baseline="alphabetic">100.1</text></g><g stroke-linecap="round" transform="translate(1011.5177590792334 352.70264968787217) rotate(0 73.49683607625201 19.863925646319444)"><path d="M9.93 0 C40.22 -1.54, 68.96 -0.14, 137.06 0 M9.93 0 C50.96 -0.59, 92.15 0.28, 137.06 0 M137.06 0 C143.84 0.7, 147.57 3.26, 146.99 9.93 M137.06 0 C143.12 -1.53, 147.49 1.46, 146.99 9.93 M146.99 9.93 C146.63 13.54, 147.99 20.57, 146.99 29.8 M146.99 9.93 C146.95 15.88, 147.26 23.19, 146.99 29.8 M146.99 29.8 C148.65 35.66, 144.24 40.4, 137.06 39.73 M146.99 29.8 C146.03 34.5, 143.36 37.88, 137.06 39.73 M137.06 39.73 C99.51 38.91, 57.08 39.94, 9.93 39.73 M137.06 39.73 C104.66 39.39, 71.93 39.2, 9.93 39.73 M9.93 39.73 C3.89 38.92, -0.63 37.66, 0 29.8 M9.93 39.73 C1.28 39.25, 0.86 35.81, 0 29.8 M0 29.8 C0.73 23.16, 0.53 20.04, 0 9.93 M0 29.8 C-0.56 23.13, -0.77 17.72, 0 9.93 M0 9.93 C1.63 2.4, 2.84 0.57, 9.93 0 M0 9.93 C-0.89 1.59, 1.22 1.91, 9.93 0" stroke="#1e1e1e" stroke-width="2" fill="none"></path></g><g transform="translate(1073.42622387863 365.9452667854184) rotate(0 11.588371276855469 6.621308548773129)"><text x="11.588371276855469" y="9.280426061960455" font-family="Virgil, Segoe UI Emoji" font-size="10.59409367803705px" fill="#1e1e1e" text-anchor="middle" style="white-space: pre;" direction="ltr" dominant-baseline="alphabetic">Send</text></g><g transform="translate(1052.9556350329517 331.21892699739794) rotate(0 50.066505432128906 4.132607957043206)"><text x="0" y="5.792263312591727" font-family="Virgil, Segoe UI Emoji" font-size="6.612172731269094px" fill="#1e1e1e" text-anchor="start" style="white-space: pre;" direction="ltr" dominant-baseline="alphabetic">Estimated Fee: + 0.1518 USDC</text></g><g stroke-linecap="round" transform="translate(10 10.627332708931135) rotate(0 336.13818359375 230.7010498046875)"><path d="M32 0 C195.36 -1.51, 359.8 -0.58, 640.28 0 M32 0 C178.06 0.78, 324.43 1.3, 640.28 0 M640.28 0 C659.93 -1.4, 672.11 9.77, 672.28 32 M640.28 0 C661.18 1.5, 670.88 11.82, 672.28 32 M672.28 32 C671.91 127.24, 671.32 223.51, 672.28 429.4 M672.28 32 C674.03 178.28, 674.49 323.61, 672.28 429.4 M672.28 429.4 C673.65 452.1, 660.34 461.94, 640.28 461.4 M672.28 429.4 C674.57 452.03, 663.47 462.16, 640.28 461.4 M640.28 461.4 C462.28 460.11, 284.98 460.05, 32 461.4 M640.28 461.4 C409.09 462.34, 177.2 461.78, 32 461.4 M32 461.4 C11.52 461.06, 1.13 449.07, 0 429.4 M32 461.4 C8.91 461, -0.96 450.02, 0 429.4 M0 429.4 C1.32 339.47, 0.86 248.11, 0 32 M0 429.4 C-0.3 308.29, -0.85 186.32, 0 32 M0 32 C-0.16 11.73, 11.88 1.34, 32 0 M0 32 C-0.98 9.67, 10.94 -1.09, 32 0" stroke="#1e1e1e" stroke-width="2" fill="none"></path></g><g stroke-linecap="round" transform="translate(478.2166957897323 35.41146904069967) rotate(0 89.07974243164062 22.034210205078125)"><path d="M11.02 0 C58.63 3.33, 102.57 4.02, 167.14 0 C175.57 0.79, 176.47 2.44, 178.16 11.02 C179.38 19.24, 175.64 29.38, 178.16 33.05 C180.44 43.52, 173.15 46.48, 167.14 44.07 C126.63 43.78, 85.66 46.21, 11.02 44.07 C1.95 44.53, 3.05 41.17, 0 33.05 C-3.26 28.1, -1.35 20.89, 0 11.02 C-2.57 0.76, 6.93 -0.69, 11.02 0" stroke="none" stroke-width="0" fill="#a5d8ff"></path><path d="M11.02 0 C63.86 1.97, 114.75 0.01, 167.14 0 M11.02 0 C51.03 1.52, 91.67 -0.05, 167.14 0 M167.14 0 C174.32 -0.89, 177.79 4.97, 178.16 11.02 M167.14 0 C173.09 1.16, 176.79 2.41, 178.16 11.02 M178.16 11.02 C178.84 17.64, 179.67 24.98, 178.16 33.05 M178.16 11.02 C178.75 15.98, 178.8 22.08, 178.16 33.05 M178.16 33.05 C176.89 40.93, 176.48 45.2, 167.14 44.07 M178.16 33.05 C180.02 41.16, 174.29 43.15, 167.14 44.07 M167.14 44.07 C130.3 46.13, 98.04 43.69, 11.02 44.07 M167.14 44.07 C116.78 44.92, 66.39 45.26, 11.02 44.07 M11.02 44.07 C4.8 42.4, -1.53 40.05, 0 33.05 M11.02 44.07 C2.71 43.36, -1.63 39.86, 0 33.05 M0 33.05 C0.43 28.89, -0.03 22.32, 0 11.02 M0 33.05 C-0.63 25.05, -0.17 17.03, 0 11.02 M0 11.02 C1.21 5.01, 2.82 -0.87, 11.02 0 M0 11.02 C0.28 2.58, 3.01 1.84, 11.02 0" stroke="#1e1e1e" stroke-width="2" fill="none"></path></g><g transform="translate(494.3264904064315 44.9456792457778) rotate(0 72.9699478149414 12.5)"><text x="72.9699478149414" y="17.52" font-family="Virgil, Segoe UI Emoji" font-size="20px" fill="#1e1e1e" text-anchor="middle" style="white-space: pre;" direction="ltr" dominant-baseline="alphabetic">Connect Wallet</text></g><g stroke-linecap="round" transform="translate(116.85858078439207 70.57889632217666) rotate(0 128.65322875976562 168.23805679562236)"><path d="M32 0 C96.33 -0.33, 161.39 -0.28, 225.31 0 M32 0 C106.64 0.91, 181.26 2, 225.31 0 M225.31 0 C245.43 1.01, 256.12 9.57, 257.31 32 M225.31 0 C246.17 1.79, 256.53 11.25, 257.31 32 M257.31 32 C257.72 119.7, 259.85 208.97, 257.31 304.48 M257.31 32 C258.27 107.77, 259.54 183.56, 257.31 304.48 M257.31 304.48 C258.93 326.47, 246.47 335.67, 225.31 336.48 M257.31 304.48 C255.62 323.95, 248.08 334.77, 225.31 336.48 M225.31 336.48 C157.26 337.13, 90.01 335.62, 32 336.48 M225.31 336.48 C177.81 335.31, 128.41 335.97, 32 336.48 M32 336.48 C9.83 335.86, -1.42 325.35, 0 304.48 M32 336.48 C9.61 338.08, 2.27 326.48, 0 304.48 M0 304.48 C1.05 203.72, 1.26 100.85, 0 32 M0 304.48 C0.64 215.84, -0.16 125.83, 0 32 M0 32 C0.24 9.72, 10.09 1.6, 32 0 M0 32 C-0.04 8.68, 9.95 0.66, 32 0" stroke="#1e1e1e" stroke-width="2" fill="none"></path></g><g stroke-linecap="round" transform="translate(137.14680423470077 114.50678241609126) rotate(0 106.2655029296875 28.914031982421875)"><path d="M14.46 0 C57.51 -0.07, 103.96 -0.29, 198.07 0 M14.46 0 C56.52 1.47, 98.35 1.32, 198.07 0 M198.07 0 C206.52 -1.1, 212.12 6.37, 212.53 14.46 M198.07 0 C206.93 0.59, 213.06 6.36, 212.53 14.46 M212.53 14.46 C213.78 26.76, 211.89 37.91, 212.53 43.37 M212.53 14.46 C213.34 25.66, 213.16 36.07, 212.53 43.37 M212.53 43.37 C212.36 52.21, 206.24 56.21, 198.07 57.83 M212.53 43.37 C213.97 51.3, 208.96 59.68, 198.07 57.83 M198.07 57.83 C157.15 60.09, 111.7 60.48, 14.46 57.83 M198.07 57.83 C145.4 56.12, 93.84 55.99, 14.46 57.83 M14.46 57.83 C3.4 57.36, -0.91 54.4, 0 43.37 M14.46 57.83 C7.09 58.49, 1.66 53.15, 0 43.37 M0 43.37 C1.56 32.93, 0.33 24.49, 0 14.46 M0 43.37 C-0.6 32.72, -0.05 22.46, 0 14.46 M0 14.46 C-0.57 6.42, 4.79 -1.73, 14.46 0 M0 14.46 C-0.71 5.48, 6.39 -1.04, 14.46 0" stroke="#1e1e1e" stroke-width="2" fill="none"></path></g><g transform="translate(141.88655032845077 83.10803974031) rotate(0 42.36994934082031 12.5)"><text x="0" y="17.52" font-family="Virgil, Segoe UI Emoji" font-size="20px" fill="#1e1e1e" text-anchor="start" style="white-space: pre;" direction="ltr" dominant-baseline="alphabetic">Recipient</text></g><g stroke-linecap="round" transform="translate(136.09208621712264 212.8564528262475) rotate(0 106.2655029296875 28.914031982421875)"><path d="M14.46 0 C54.77 1.37, 96.99 1.17, 198.07 0 M14.46 0 C80.89 -1.47, 148.3 -0.15, 198.07 0 M198.07 0 C207.04 0.51, 212.99 6.16, 212.53 14.46 M198.07 0 C209.6 -1.48, 212.1 6.47, 212.53 14.46 M212.53 14.46 C213.83 23.69, 213 37.44, 212.53 43.37 M212.53 14.46 C212.68 24.36, 212.03 34.26, 212.53 43.37 M212.53 43.37 C213.78 51.52, 208.8 59.44, 198.07 57.83 M212.53 43.37 C210.98 53.56, 209.97 59.84, 198.07 57.83 M198.07 57.83 C138.47 59.74, 77.9 57.08, 14.46 57.83 M198.07 57.83 C145.5 57.03, 93.88 57.96, 14.46 57.83 M14.46 57.83 C6.8 58.41, 1.44 53.13, 0 43.37 M14.46 57.83 C5.36 59.57, 0.95 55.06, 0 43.37 M0 43.37 C0.99 37.46, 1.26 28.28, 0 14.46 M0 43.37 C-0.32 36.75, -0.05 27.67, 0 14.46 M0 14.46 C-0.62 5.39, 6.18 -0.9, 14.46 0 M0 14.46 C2.01 5.51, 5.32 -1.08, 14.46 0" stroke="#1e1e1e" stroke-width="2" fill="none"></path></g><g transform="translate(142.97975101204452 185.71088397859126) rotate(0 34.429969787597656 12.5)"><text x="0" y="17.52" font-family="Virgil, Segoe UI Emoji" font-size="20px" fill="#1e1e1e" text-anchor="start" style="white-space: pre;" direction="ltr" dominant-baseline="alphabetic">Amount</text></g><g stroke-linecap="round" transform="translate(288.3486169788413 214.19397724031) rotate(0 29.335296630859375 28.20556640625)"><path d="M14.1 0 C24.28 -1.16, 32.87 -1.13, 44.57 0 M14.1 0 C21.23 0.02, 29.26 0.43, 44.57 0 M44.57 0 C55.61 -1.29, 58.3 6.13, 58.67 14.1 M44.57 0 C55.42 -0.52, 60.25 6.27, 58.67 14.1 M58.67 14.1 C59.87 22.4, 59.41 27.28, 58.67 42.31 M58.67 14.1 C59.09 20.69, 59.01 29.57, 58.67 42.31 M58.67 42.31 C57.32 52.19, 55.93 58.16, 44.57 56.41 M58.67 42.31 C59.19 50.53, 54.95 56.01, 44.57 56.41 M44.57 56.41 C33.36 55.34, 22.23 54.76, 14.1 56.41 M44.57 56.41 C37.12 56.91, 28.42 56.68, 14.1 56.41 M14.1 56.41 C5.18 57.93, 0.82 53.49, 0 42.31 M14.1 56.41 C3.46 57.04, -0.18 52.94, 0 42.31 M0 42.31 C-1.06 32.38, -1.14 21.4, 0 14.1 M0 42.31 C-0.31 31.87, 0.69 20.41, 0 14.1 M0 14.1 C1.75 5.3, 5.14 -0.94, 14.1 0 M0 14.1 C-0.79 5.54, 2.66 -0.93, 14.1 0" stroke="#1e1e1e" stroke-width="2" fill="none"></path></g><g stroke-linecap="round" transform="translate(299.9206994983725 223.31293475984126) rotate(0 18.215728759765625 18.215728759765625)"><path d="M4.7 6.73 C4.7 6.73, 4.7 6.73, 4.7 6.73 M4.7 6.73 C4.7 6.73, 4.7 6.73, 4.7 6.73 M2.21 21.79 C7.87 16.42, 12.41 10.53, 19.92 1.42 M2.21 21.79 C7.86 15.29, 13.44 8.18, 19.92 1.42 M5.62 30.06 C14.47 21.68, 22.24 11.59, 28.58 3.64 M5.62 30.06 C14.02 20.61, 22.52 11.03, 28.58 3.64 M12.31 34.55 C20.98 25.83, 28.2 16.16, 33.31 10.4 M12.31 34.55 C18.83 27.21, 25.3 18.87, 33.31 10.4 M22.29 35.27 C27.74 29.43, 31.73 23.68, 35.41 20.18 M22.29 35.27 C24.87 32.33, 27.74 29.01, 35.41 20.18" stroke="#a5d8ff" stroke-width="1" fill="none"></path><path d="M15.91 0.03 C19.61 -0.71, 24.54 0.66, 27.86 2.8 C31.18 4.93, 34.66 9.18, 35.82 12.84 C36.99 16.51, 36.27 21.18, 34.84 24.8 C33.42 28.41, 30.66 32.6, 27.27 34.54 C23.87 36.47, 18.3 37.29, 14.47 36.41 C10.64 35.53, 6.69 32.27, 4.3 29.24 C1.91 26.21, 0.05 22.02, 0.14 18.24 C0.23 14.46, 2.15 9.58, 4.85 6.55 C7.56 3.52, 14.4 1.15, 16.38 0.07 C18.36 -1.02, 16.8 -0.32, 16.73 0.04 M14.34 0.49 C18 -0.41, 24.37 1.18, 27.88 3 C31.4 4.82, 34.13 7.89, 35.43 11.41 C36.74 14.93, 36.97 20.48, 35.72 24.12 C34.47 27.77, 31.43 31.27, 27.92 33.26 C24.42 35.25, 18.65 36.63, 14.68 36.06 C10.71 35.49, 6.62 32.82, 4.08 29.85 C1.55 26.88, -0.48 22.02, -0.53 18.25 C-0.58 14.47, 1.1 10.14, 3.79 7.19 C6.48 4.23, 13.65 1.61, 15.59 0.53 C17.54 -0.55, 15.5 0.36, 15.46 0.72" stroke="#1971c2" stroke-width="2" fill="none"></path></g><g transform="translate(155.8583826038414 134.74445331452876) rotate(0 85.45712280273438 7.548826964214527)"><text x="0" y="10.580435873043106" font-family="Virgil, Segoe UI Emoji" font-size="12.078123142743271px" fill="#868e96" text-anchor="start" style="white-space: pre;" direction="ltr" dominant-baseline="alphabetic">Polkadot Asset Hub address</text></g><g transform="translate(258.0017694446616 233.15644178000161) rotate(0 7.616416931152344 13.844266879209385)"><text x="0" y="19.404124457899897" font-family="Virgil, Segoe UI Emoji" font-size="22.150827006735042px" fill="#868e96" text-anchor="start" style="white-space: pre;" direction="ltr" dominant-baseline="alphabetic">0</text></g><g stroke-linecap="round" transform="translate(131.22347104633366 324.4428547420757) rotate(0 111.0004699748814 30)"><path d="M15 0 C69.19 1.11, 123.71 2.29, 207 0 M15 0 C60.84 -1.6, 106.11 -0.7, 207 0 M207 0 C215.73 0.54, 223.99 6.13, 222 15 M207 0 C218.87 0.76, 221.81 4.08, 222 15 M222 15 C220.27 22.88, 223.37 27.24, 222 45 M222 15 C222.52 24.21, 222.72 34.27, 222 45 M222 45 C223.13 53.34, 215.47 59.65, 207 60 M222 45 C221.04 54.29, 215.37 59.47, 207 60 M207 60 C158.76 63.34, 109.49 62.37, 15 60 M207 60 C134.33 61.98, 62.66 62.25, 15 60 M15 60 C6.21 61.34, -0.85 54.13, 0 45 M15 60 C5.28 58.91, -0.66 56.84, 0 45 M0 45 C0.83 37.41, -0.64 28.85, 0 15 M0 45 C-0.41 35.46, -0.95 24.79, 0 15 M0 15 C0.88 5.45, 3.8 1.97, 15 0 M0 15 C1.46 6.99, 4.15 1.54, 15 0" stroke="#868e96" stroke-width="2" fill="none"></path></g><g transform="translate(149.887988262426 344.4428547420757) rotate(0 92.33595275878906 10)"><text x="92.33595275878906" y="14.016" font-family="Virgil, Segoe UI Emoji" font-size="16px" fill="#868e96" text-anchor="middle" style="white-space: pre;" direction="ltr" dominant-baseline="alphabetic">Connect Wallet to send</text></g><g stroke-linecap="round" transform="translate(1012.9982359630951 99.07130872786217) rotate(0 18.074669693905037 18.074669693905037)"><path d="M22.4 0.49 C25.99 1.19, 30.33 4.1, 32.64 7.27 C34.96 10.43, 36.62 15.65, 36.32 19.47 C36.02 23.3, 33.58 27.51, 30.86 30.21 C28.14 32.91, 23.8 35.25, 20.01 35.66 C16.22 36.08, 11.27 34.79, 8.12 32.69 C4.97 30.59, 2.26 26.7, 1.13 23.07 C0 19.45, -0.18 14.51, 1.33 10.96 C2.84 7.42, 6.65 3.48, 10.2 1.78 C13.75 0.08, 20.33 0.88, 22.61 0.77 C24.9 0.66, 23.97 0.8, 23.93 1.1 M15.77 0.63 C19.42 0.01, 25.12 1.55, 28.31 3.56 C31.5 5.57, 33.89 9.12, 34.88 12.69 C35.87 16.26, 35.72 21.29, 34.22 24.99 C32.73 28.68, 29.13 33.03, 25.9 34.85 C22.66 36.66, 18.55 36.76, 14.81 35.86 C11.08 34.96, 5.95 32.62, 3.5 29.43 C1.04 26.25, -0.02 20.75, 0.09 16.73 C0.2 12.72, 1.67 8.17, 4.18 5.34 C6.7 2.51, 13.3 0.62, 15.17 -0.24 C17.03 -1.09, 15.17 -0.07, 15.38 0.21" stroke="none" stroke-width="0" fill="#b2f2bb"></path><path d="M15.98 -0.36 C19.59 -1.05, 24.9 0.64, 28.06 2.88 C31.22 5.13, 33.79 9.3, 34.95 13.11 C36.11 16.91, 36.45 22.2, 35.04 25.71 C33.63 29.22, 30.08 32.48, 26.49 34.16 C22.9 35.84, 17.27 36.67, 13.49 35.79 C9.7 34.9, 5.96 31.99, 3.77 28.85 C1.58 25.7, 0.2 20.81, 0.35 16.9 C0.5 13, 1.96 8.2, 4.68 5.42 C7.39 2.64, 14.59 1.02, 16.63 0.24 C18.67 -0.55, 16.85 0.38, 16.91 0.73 M14.33 0.61 C17.94 -0.52, 23.05 0.44, 26.4 2.06 C29.74 3.69, 32.88 6.77, 34.43 10.38 C35.97 13.99, 36.88 19.83, 35.66 23.72 C34.44 27.6, 30.34 31.61, 27.1 33.7 C23.87 35.79, 20.01 36.9, 16.27 36.27 C12.54 35.64, 7.34 32.91, 4.7 29.94 C2.07 26.97, 0.6 22.25, 0.46 18.48 C0.31 14.7, 1.58 10.36, 3.84 7.28 C6.1 4.2, 12.19 0.99, 14.01 -0.01 C15.84 -1.02, 14.67 0.81, 14.77 1.26" stroke="#1e1e1e" stroke-width="2" fill="none"></path></g><g transform="translate(1081.4839951680915 264.9230310823434) rotate(0 34.149269104003906 3.576428317440673)"><text x="0" y="5.012721929724874" font-family="Virgil, Segoe UI Emoji" font-size="5.722285307905108px" fill="#868e96" text-anchor="start" style="white-space: pre;" direction="ltr" dominant-baseline="alphabetic">Available: 400.24 USDC</text></g><g stroke-linecap="round" transform="translate(998.0156795231818 86.24240394923675) rotate(0 85.91763686973889 42.27028952267102)"><path d="M21.14 0 C58.86 -0.09, 96.3 -0.2, 150.7 0 M21.14 0 C50.86 -0.31, 80.28 -1.59, 150.7 0 M150.7 0 C163.6 1.38, 170.88 8.61, 171.84 21.14 M150.7 0 C166.74 -1.87, 172.3 6.66, 171.84 21.14 M171.84 21.14 C170.6 37.35, 169.75 50.03, 171.84 63.41 M171.84 21.14 C170.92 35.9, 171.34 48.7, 171.84 63.41 M171.84 63.41 C171.9 76.83, 164.72 84.75, 150.7 84.54 M171.84 63.41 C173.4 75.93, 163.41 83.66, 150.7 84.54 M150.7 84.54 C106.66 83.94, 65.81 82.61, 21.14 84.54 M150.7 84.54 C101.53 84.5, 52.94 84.74, 21.14 84.54 M21.14 84.54 C6.43 85.31, -0.32 75.79, 0 63.41 M21.14 84.54 C7.96 86.16, -1.61 78.45, 0 63.41 M0 63.41 C0.75 49.46, 1.2 37.07, 0 21.14 M0 63.41 C0 53.89, -0.67 44.35, 0 21.14 M0 21.14 C-1.5 8.82, 6.62 1.47, 21.14 0 M0 21.14 C-0.36 8.16, 7.94 -1.72, 21.14 0" stroke="#1e1e1e" stroke-width="2" fill="none"></path></g><g transform="translate(1045.2309373905014 144.13079555684658) rotate(0 38.96980285644531 6.55321253463552)"><text x="0" y="9.184982688545128" font-family="Virgil, Segoe UI Emoji" font-size="10.485140055416812px" fill="#1e1e1e" text-anchor="start" style="white-space: pre;" direction="ltr" dominant-baseline="alphabetic">123Wg....88g5G</text></g><g transform="translate(1066.3835757584197 108.15384827340222) rotate(0 33.47105407714844 6.082074140023906)"><text x="0" y="8.524635114657528" font-family="Virgil, Segoe UI Emoji" font-size="9.731318624038275px" fill="#868e96" text-anchor="start" style="white-space: pre;" direction="ltr" dominant-baseline="alphabetic">400.24 USDC</text></g><g transform="translate(1067.636396599078 125.18304819131356) rotate(0 30.205589294433594 6.082074140023906)"><text x="0" y="8.524635114657528" font-family="Virgil, Segoe UI Emoji" font-size="9.731318624038273px" fill="#868e96" text-anchor="start" style="white-space: pre;" direction="ltr" dominant-baseline="alphabetic">100.15 USDT</text></g><g stroke-linecap="round" transform="translate(1489.1285072094931 16.240886943795203) rotate(0 134.3748702401034 201.31575620783792)"><path d="M32 0 C110.82 0.89, 187.98 -0.53, 236.75 0 M32 0 C88.14 0.96, 144.87 0.95, 236.75 0 M236.75 0 C258.88 -0.57, 268.87 9.84, 268.75 32 M236.75 0 C256.29 0.42, 269.41 9.78, 268.75 32 M268.75 32 C269.46 152.12, 269.32 274.46, 268.75 370.63 M268.75 32 C268.38 102.64, 267.52 173.37, 268.75 370.63 M268.75 370.63 C269.25 392.3, 256.66 401.5, 236.75 402.63 M268.75 370.63 C269.91 390.52, 255.85 400.69, 236.75 402.63 M236.75 402.63 C177.97 404.25, 120.33 404.59, 32 402.63 M236.75 402.63 C185.72 402.96, 133.65 401.86, 32 402.63 M32 402.63 C8.95 404, -1.19 390.78, 0 370.63 M32 402.63 C10.73 402.29, -1.93 394.13, 0 370.63 M0 370.63 C-0.73 277.11, 0.71 184.64, 0 32 M0 370.63 C-2.16 281.14, -1.03 191.19, 0 32 M0 32 C-1.99 10.83, 10.54 0.56, 32 0 M0 32 C0.74 10.47, 9.91 0.8, 32 0" stroke="#1e1e1e" stroke-width="2" fill="none"></path></g><g stroke-linecap="round"><g transform="translate(1502.7627689663693 138.01189540917323) rotate(0 117.09896019869927 -0.3194520814776638)"><path d="M-1.13 -0.92 C38.23 -0.77, 195.82 0.56, 235.1 0.47 M0.48 1.21 C39.85 1.09, 195.72 -0.78, 234.62 -1.08" stroke="#868e96" stroke-width="2" fill="none"></path></g></g><mask></mask><g stroke-linecap="round"><g transform="translate(1498.5835815660716 255.9471531243728) rotate(0 119.64910066881896 -1.1866438501843959)"><path d="M0.43 0.35 C40.43 0.16, 200.05 -1.36, 239.74 -1.82 M-0.81 -0.52 C39.1 -1, 198.71 -3.55, 239.02 -3.65" stroke="#868e96" stroke-width="2" fill="none"></path></g></g><mask></mask><g stroke-linecap="round"><g transform="translate(1500.4401145652937 374.13686918285725) rotate(0 123.8208731561653 0)"><path d="M0.63 0.01 C41.92 0.04, 206.1 -0.56, 247.12 -0.52 M-0.49 -1.04 C40.64 -0.78, 204.29 0.29, 245.9 0.75" stroke="#1e1e1e" stroke-width="2" fill="none"></path></g></g><mask></mask><g transform="translate(1590.5804354187267 383.1356747166193) rotate(0 41.16808319091797 10)"><text x="0" y="14.016" font-family="Virgil, Segoe UI Emoji" font-size="16px" fill="#1e1e1e" text-anchor="start" style="white-space: pre;" direction="ltr" dominant-baseline="alphabetic">Disconnect</text></g><g stroke-linecap="round"><g transform="translate(1748.2105764115286 47.94517736354089) rotate(0 0 156.70740864821346)"><path d="M-0.51 -1.08 C-0.47 51.23, -0.93 261.49, -0.67 314.03 M1.42 0.96 C1.93 52.91, 1.79 260.35, 1.69 312.23" stroke="#868e96" stroke-width="2" fill="none"></path></g></g><mask></mask><g transform="translate(1065.9590393958383 94.69250583131179) rotate(0 19.415359497070312 5.539603460234446)"><text x="0" y="7.7643082098646055" font-family="Virgil, Segoe UI Emoji" font-size="8.86336553637512px" fill="#1e1e1e" text-anchor="start" style="white-space: pre;" direction="ltr" dominant-baseline="alphabetic">Balances</text></g><g stroke-linecap="round" transform="translate(1531.7341321707495 39.19576009037007) rotate(0 24.6680799253877 24.6680799253877)"><path d="M29.74 0.83 C34.77 1.63, 41.32 5.28, 44.63 9.48 C47.94 13.68, 49.93 20.73, 49.62 26.02 C49.3 31.31, 46.41 37.39, 42.76 41.2 C39.11 45.01, 32.94 48.11, 27.73 48.88 C22.52 49.65, 15.94 48.66, 11.5 45.82 C7.07 42.99, 2.67 36.92, 1.14 31.84 C-0.39 26.77, 0.31 20.18, 2.3 15.37 C4.29 10.55, 8.25 5.31, 13.09 2.95 C17.93 0.59, 28.23 1.5, 31.34 1.21 C34.44 0.92, 31.85 0.8, 31.7 1.2 M23.11 -0.62 C28 -1.37, 35.12 1.01, 39.42 4.17 C43.72 7.34, 47.57 13.17, 48.9 18.38 C50.24 23.58, 49.77 30.69, 47.44 35.41 C45.11 40.12, 39.76 44.5, 34.9 46.67 C30.04 48.85, 23.49 49.81, 18.3 48.44 C13.12 47.08, 6.91 42.81, 3.78 38.48 C0.64 34.15, -1.1 27.64, -0.53 22.46 C0.03 17.28, 3.15 11.2, 7.18 7.41 C11.21 3.62, 20.9 0.83, 23.62 -0.27 C26.33 -1.36, 23.52 0.26, 23.46 0.83" stroke="none" stroke-width="0" fill="#b2f2bb"></path><path d="M30.63 0.75 C35.48 1.74, 41.35 6.03, 44.41 10.27 C47.47 14.52, 49.28 20.92, 48.98 26.22 C48.68 31.53, 46.19 38.26, 42.63 42.09 C39.07 45.92, 32.92 48.8, 27.61 49.22 C22.3 49.64, 15.15 47.66, 10.76 44.62 C6.36 41.58, 2.68 35.88, 1.23 30.96 C-0.22 26.03, -0.08 19.84, 2.04 15.09 C4.17 10.34, 9 4.79, 13.99 2.46 C18.98 0.13, 28.87 1.25, 31.97 1.12 C35.06 0.99, 32.68 1.37, 32.54 1.7 M22.02 0.65 C27.13 -0.24, 34.37 1.56, 38.86 4.53 C43.35 7.49, 47.45 13.39, 48.94 18.46 C50.43 23.52, 49.98 30.28, 47.81 34.92 C45.63 39.55, 40.72 43.98, 35.88 46.26 C31.03 48.54, 23.85 49.89, 18.74 48.59 C13.62 47.3, 8.36 42.83, 5.18 38.5 C2 34.17, -0.71 27.68, -0.36 22.6 C-0.02 17.53, 3.35 11.71, 7.23 8.06 C11.11 4.41, 20.49 1.86, 22.92 0.68 C25.34 -0.49, 21.76 0.64, 21.79 1" stroke="#1e1e1e" stroke-width="2" fill="none"></path></g><g transform="translate(1575.7249142147796 100.69237614577503) rotate(0 53.2197265625 8.94374134133983)"><text x="0" y="12.535547864021947" font-family="Virgil, Segoe UI Emoji" font-size="14.309986146143775px" fill="#1e1e1e" text-anchor="start" style="white-space: pre;" direction="ltr" dominant-baseline="alphabetic">123Wg....88g5G</text></g><g transform="translate(1604.5937667431654 51.59149485228534) rotate(0 45.68677520751953 8.300737636651604)"><text x="0" y="11.63431387153089" font-family="Virgil, Segoe UI Emoji" font-size="13.28118021864257px" fill="#868e96" text-anchor="start" style="white-space: pre;" direction="ltr" dominant-baseline="alphabetic">400.24 USDC</text></g><g transform="translate(1606.3036007347637 74.83273088893054) rotate(0 41.22953796386719 8.300737636651604)"><text x="0" y="11.634313871530889" font-family="Virgil, Segoe UI Emoji" font-size="13.281180218642568px" fill="#868e96" text-anchor="start" style="white-space: pre;" direction="ltr" dominant-baseline="alphabetic">100.15 USDT</text></g><g transform="translate(1604.0143649006563 33.219625441223684) rotate(0 26.46904754638672 7.560380533985494)"><text x="0" y="10.596629356434105" font-family="Virgil, Segoe UI Emoji" font-size="12.096608854376832px" fill="#1e1e1e" text-anchor="start" style="white-space: pre;" direction="ltr" dominant-baseline="alphabetic">Balances</text></g><g stroke-linecap="round" transform="translate(1532.697758245278 157.73732580332944) rotate(0 24.6680799253877 24.6680799253877)"><path d="M23.12 -0.16 C28.03 -0.9, 34.84 1.49, 39.01 4.69 C43.18 7.88, 46.79 13.97, 48.11 19.02 C49.43 24.08, 49.22 30.35, 46.94 35.02 C44.65 39.7, 39.24 44.82, 34.38 47.07 C29.51 49.32, 22.72 49.96, 17.75 48.5 C12.77 47.04, 7.47 42.64, 4.53 38.31 C1.59 33.97, -0.33 27.7, 0.11 22.47 C0.55 17.24, 3.18 10.67, 7.17 6.93 C11.16 3.19, 21.08 1.12, 24.05 0.03 C27.01 -1.06, 24.93 -0.04, 24.96 0.38 M27.24 -0.01 C32.44 0.08, 38.6 3.89, 42.36 7.65 C46.12 11.42, 49.44 17.34, 49.8 22.55 C50.16 27.77, 47.65 34.57, 44.51 38.95 C41.37 43.34, 35.91 47.4, 30.96 48.88 C26.01 50.35, 19.46 49.96, 14.81 47.78 C10.15 45.6, 5.43 40.76, 3.02 35.81 C0.62 30.86, -0.78 23.34, 0.37 18.07 C1.52 12.79, 5.51 7.07, 9.91 4.16 C14.31 1.25, 24 1.25, 26.79 0.61 C29.58 -0.03, 26.72 -0.04, 26.66 0.33" stroke="none" stroke-width="0" fill="#b2f2bb"></path><path d="M28.71 0.3 C33.69 0.76, 40.52 4.48, 43.94 8.49 C47.36 12.5, 49.25 19.04, 49.22 24.36 C49.18 29.68, 47.13 36.3, 43.74 40.44 C40.35 44.57, 34.12 48.34, 28.89 49.19 C23.65 50.05, 16.94 48.28, 12.33 45.57 C7.72 42.86, 3.12 37.78, 1.24 32.94 C-0.63 28.09, -0.82 21.4, 1.07 16.51 C2.96 11.62, 7.7 6.3, 12.59 3.6 C17.47 0.89, 27.38 0.71, 30.39 0.27 C33.4 -0.17, 30.7 0.5, 30.64 0.95 M28.79 -0.07 C33.78 0.41, 40.74 4.41, 44.18 8.48 C47.62 12.55, 49.54 18.94, 49.42 24.37 C49.3 29.8, 47.05 36.83, 43.46 41.06 C39.87 45.29, 33.18 48.85, 27.86 49.77 C22.55 50.69, 15.91 49.32, 11.58 46.55 C7.25 43.79, 3.41 38.36, 1.87 33.21 C0.33 28.06, 0.61 20.66, 2.33 15.66 C4.06 10.67, 7.67 5.67, 12.21 3.24 C16.75 0.81, 26.8 1.41, 29.57 1.07 C32.34 0.73, 28.95 0.9, 28.84 1.2" stroke="#1e1e1e" stroke-width="2" fill="none"></path></g><g transform="translate(1576.6885402893083 219.2339418587344) rotate(0 53.2197265625 8.943741341339887)"><text x="0" y="12.535547864021947" font-family="Virgil, Segoe UI Emoji" font-size="14.309986146143775px" fill="#1e1e1e" text-anchor="start" style="white-space: pre;" direction="ltr" dominant-baseline="alphabetic">123Wg....88g5G</text></g><g transform="translate(1605.5573928176943 170.1330605652447) rotate(0 45.68677520751953 8.300737636651604)"><text x="0" y="11.63431387153089" font-family="Virgil, Segoe UI Emoji" font-size="13.28118021864257px" fill="#868e96" text-anchor="start" style="white-space: pre;" direction="ltr" dominant-baseline="alphabetic">400.24 USDC</text></g><g transform="translate(1607.2672268092922 193.3742966018899) rotate(0 41.22953796386719 8.300737636651604)"><text x="0" y="11.634313871530889" font-family="Virgil, Segoe UI Emoji" font-size="13.281180218642568px" fill="#868e96" text-anchor="start" style="white-space: pre;" direction="ltr" dominant-baseline="alphabetic">100.15 USDT</text></g><g transform="translate(1604.9779909751849 151.76119115418305) rotate(0 26.46904754638672 7.560380533985494)"><text x="0" y="10.596629356434105" font-family="Virgil, Segoe UI Emoji" font-size="12.096608854376832px" fill="#1e1e1e" text-anchor="start" style="white-space: pre;" direction="ltr" dominant-baseline="alphabetic">Balances</text></g><g stroke-linecap="round" transform="translate(1534.8885735974566 274.0586439837829) rotate(0 24.6680799253877 24.6680799253877)"><path d="M22.15 -0.21 C27.26 -1.07, 34.81 0.89, 39.16 3.94 C43.51 6.99, 46.88 12.96, 48.27 18.08 C49.65 23.2, 49.6 29.87, 47.45 34.66 C45.31 39.45, 40.27 44.53, 35.41 46.81 C30.56 49.1, 23.5 49.68, 18.33 48.38 C13.16 47.08, 7.42 43.26, 4.4 39.01 C1.38 34.75, -0.2 28.2, 0.2 22.84 C0.6 17.48, 2.88 10.73, 6.8 6.87 C10.72 3.01, 20.74 0.67, 23.71 -0.32 C26.68 -1.3, 24.69 0.51, 24.61 0.97 M23.59 -0.08 C28.52 -0.5, 35.88 1.55, 40.12 4.89 C44.36 8.23, 48.11 14.61, 49.04 19.94 C49.97 25.27, 48.16 32.26, 45.7 36.89 C43.25 41.51, 39.02 45.8, 34.31 47.7 C29.6 49.59, 22.68 49.88, 17.45 48.28 C12.21 46.67, 5.71 42.74, 2.92 38.07 C0.13 33.39, -0.24 25.66, 0.71 20.25 C1.66 14.84, 4.7 8.98, 8.63 5.61 C12.55 2.24, 21.73 0.8, 24.27 0.03 C26.8 -0.74, 23.82 0.65, 23.86 0.99" stroke="none" stroke-width="0" fill="#b2f2bb"></path><path d="M21.9 -0.13 C26.82 -0.89, 33.6 1.51, 37.97 4.43 C42.34 7.35, 46.55 12.3, 48.11 17.38 C49.67 22.46, 49.4 30.07, 47.34 34.91 C45.28 39.75, 40.59 44.13, 35.75 46.41 C30.91 48.69, 23.53 49.74, 18.32 48.58 C13.12 47.42, 7.63 43.68, 4.51 39.46 C1.39 35.24, -0.78 28.56, -0.39 23.28 C-0.01 17.99, 2.86 11.65, 6.82 7.77 C10.78 3.88, 20.41 1.26, 23.35 -0.03 C26.29 -1.32, 24.42 -0.33, 24.46 0.03 M28 0.68 C33.16 1.21, 40.02 4.74, 43.64 8.54 C47.27 12.34, 49.67 18.19, 49.75 23.48 C49.83 28.77, 47.43 35.96, 44.14 40.29 C40.86 44.61, 35.32 48.36, 30.03 49.42 C24.74 50.49, 17.16 49.29, 12.4 46.66 C7.63 44.03, 3.42 38.51, 1.47 33.63 C-0.49 28.76, -1.14 22.46, 0.66 17.4 C2.46 12.34, 7.54 6.13, 12.27 3.29 C16.99 0.46, 26.37 0.84, 29.01 0.37 C31.65 -0.09, 28.18 0.2, 28.11 0.51" stroke="#1e1e1e" stroke-width="2" fill="none"></path></g><g transform="translate(1578.8793556414869 335.55526003918783) rotate(0 53.2197265625 8.94374134133983)"><text x="0" y="12.535547864021947" font-family="Virgil, Segoe UI Emoji" font-size="14.309986146143775px" fill="#1e1e1e" text-anchor="start" style="white-space: pre;" direction="ltr" dominant-baseline="alphabetic">123Wg....88g5G</text></g><g transform="translate(1607.748208169873 286.45437874569836) rotate(0 45.68677520751953 8.300737636651604)"><text x="0" y="11.63431387153089" font-family="Virgil, Segoe UI Emoji" font-size="13.28118021864257px" fill="#868e96" text-anchor="start" style="white-space: pre;" direction="ltr" dominant-baseline="alphabetic">400.24 USDC</text></g><g transform="translate(1609.4580421614708 309.69561478234334) rotate(0 41.22953796386719 8.300737636651604)"><text x="0" y="11.634313871530889" font-family="Virgil, Segoe UI Emoji" font-size="13.281180218642568px" fill="#868e96" text-anchor="start" style="white-space: pre;" direction="ltr" dominant-baseline="alphabetic">100.15 USDT</text></g><g transform="translate(1607.1688063273634 268.0825093346365) rotate(0 26.46904754638672 7.560380533985494)"><text x="0" y="10.596629356434105" font-family="Virgil, Segoe UI Emoji" font-size="12.096608854376832px" fill="#1e1e1e" text-anchor="start" style="white-space: pre;" direction="ltr" dominant-baseline="alphabetic">Balances</text></g></svg>